<svg xmlns="http://www.w3.org/2000/svg" xmlns:xlink="http://www.w3.org/1999/xlink" width="500" zoomAndPan="magnify" viewBox="0 0 375 374.999991" height="500" preserveAspectRatio="xMidYMid meet" version="1.0"><defs><filter x="0%" y="0%" width="100%" height="100%" id="a9c6ac5434"><feColorMatrix values="0 0 0 0 1 0 0 0 0 1 0 0 0 0 1 0 0 0 1 0" color-interpolation-filters="sRGB"/></filter><g/><clipPath id="18bc8d5888"><path d="M 120 245 L 263 245 L 263 314.960938 L 120 314.960938 Z M 120 245 " clip-rule="nonzero"/></clipPath><mask id="60ac9f64f6"><g filter="url(#a9c6ac5434)"><rect x="-37.5" width="450" fill="#000000" y="-37.499999" height="449.999989" fill-opacity="0.9"/></g></mask><clipPath id="4065790a74"><path d="M 0.933594 0.621094 L 79.683594 0.621094 L 79.683594 113.121094 L 0.933594 113.121094 Z M 0.933594 0.621094 " clip-rule="nonzero"/></clipPath><clipPath id="8a17692f52"><rect x="0" width="80" y="0" height="114"/></clipPath><clipPath id="afa6739b06"><path d="M 130.96875 61.089844 L 244.21875 61.089844 L 244.21875 171 L 130.96875 171 Z M 130.96875 61.089844 " clip-rule="nonzero"/></clipPath></defs><g clip-path="url(#18bc8d5888)"><path fill="#d9d9d9" d="M 187.925781 280.675781 C 186.394531 278.800781 184.128906 277.714844 181.6875 277.921875 C 179.039062 278.15625 176.832031 279.914062 175.15625 282.144531 C 174.976562 282.261719 174.832031 282.378906 174.683594 282.554688 C 173.152344 284.3125 171.625 287.128906 169.121094 287.65625 C 167.0625 288.097656 166.855469 284.695312 166.796875 283.347656 C 166.679688 281.320312 164.210938 280.558594 162.796875 282.027344 C 159.324219 285.664062 156.675781 289.914062 154.765625 294.519531 C 154.792969 294.195312 154.851562 293.875 154.882812 293.550781 C 155.765625 287.597656 157.648438 281.46875 160.824219 276.335938 C 162.414062 273.785156 158.382812 271.820312 156.851562 274.253906 C 153.175781 279.972656 150.410156 286.015625 149.292969 292.789062 C 148.230469 299.242188 147.9375 306.835938 150.878906 312.878906 C 151.878906 314.960938 155.265625 313.726562 155.207031 311.617188 C 155.207031 311.558594 155.207031 311.5 155.207031 311.441406 C 155.207031 311.410156 155.207031 311.410156 155.207031 311.382812 C 156.234375 303.433594 158.234375 295.488281 162.828125 288.917969 C 163.648438 290.941406 165.238281 292.496094 167.976562 292.582031 C 169.0625 292.613281 170.125 292.40625 171.125 291.996094 C 170.476562 295.78125 170.710938 299.828125 172.359375 303.257812 C 173.800781 306.25 177.273438 305.75 179.480469 303.875 C 181.453125 302.203125 183.128906 300.0625 184.542969 297.949219 C 184.601562 297.863281 184.660156 297.773438 184.71875 297.6875 C 184.601562 298.945312 184.511719 300.207031 184.453125 301.5 C 184.363281 303.433594 184.277344 305.457031 184.953125 307.304688 C 185.660156 309.269531 188.808594 308.476562 189.335938 306.6875 C 190.457031 302.847656 190.160156 298.476562 190.542969 294.488281 C 190.957031 290.148438 191.71875 285.898438 192.339844 281.585938 C 192.632812 279.121094 189.484375 279.386719 187.925781 280.675781 Z M 182.453125 292.582031 C 181.570312 294.226562 180.539062 295.808594 179.421875 297.277344 C 178.890625 297.980469 178.363281 298.652344 177.746094 299.300781 C 177.566406 299.503906 177.390625 299.679688 177.214844 299.855469 C 176.949219 299.09375 176.832031 298.097656 176.742188 297.6875 C 176.449219 296.308594 176.300781 294.898438 176.359375 293.492188 C 176.449219 290.707031 177.097656 288.007812 178.304688 285.488281 C 178.804688 284.429688 179.507812 283.316406 180.332031 282.4375 C 181.128906 281.585938 182.15625 281.703125 183.1875 282.40625 C 184.542969 283.316406 185.101562 284.722656 185.542969 286.191406 C 184.570312 288.390625 183.539062 290.53125 182.453125 292.582031 Z M 255.246094 277.480469 C 257.484375 273.785156 259.308594 269.828125 260.632812 265.691406 C 262.042969 261.351562 263.132812 256.660156 262.984375 252.085938 C 262.925781 250.121094 262.925781 247.421875 261.335938 245.984375 C 259.660156 244.460938 257.304688 245.015625 255.6875 246.308594 C 252.570312 248.828125 250.65625 253.257812 249.332031 256.953125 C 247.890625 261.027344 247.039062 265.308594 246.242188 269.53125 C 245.742188 272.144531 245.300781 274.78125 244.890625 277.421875 C 244.476562 277.746094 244.152344 278.183594 243.917969 278.742188 C 241.417969 284.429688 239.976562 290.851562 236.121094 295.898438 C 235.445312 296.746094 234.679688 297.628906 233.796875 298.273438 C 233.355469 298.59375 232.824219 298.917969 232.324219 299.152344 C 232.089844 299.269531 231.058594 299.535156 231.414062 299.476562 C 230.238281 299.621094 228.941406 299.359375 228.03125 298.15625 C 227.234375 297.128906 226.96875 295.664062 226.675781 294.429688 C 226.351562 293.140625 226.117188 291.820312 226.027344 290.5 C 226.910156 290.910156 227.910156 291.117188 229.089844 291.058594 C 232.148438 290.941406 235.0625 289.121094 236.472656 286.394531 C 237.917969 283.582031 238.09375 279.886719 236.621094 277.039062 C 235.0625 274.019531 231.796875 272.085938 228.414062 273.34375 C 224.941406 274.636719 222.4375 278.007812 221.292969 281.410156 C 220.554688 283.609375 220.144531 285.898438 220.054688 288.183594 C 219.351562 288.769531 218.554688 289.210938 217.671875 289.152344 C 216.320312 289.035156 216.082031 287.773438 215.847656 286.628906 C 214.964844 282.699219 214.847656 278.59375 215.082031 274.605469 C 215.171875 273.050781 213.671875 271.820312 212.199219 271.851562 C 210.550781 271.878906 209.464844 273.199219 209.316406 274.753906 C 209.050781 277.480469 209.023438 280.238281 208.523438 282.90625 C 207.992188 285.722656 207.34375 288.507812 206.578125 291.265625 C 205.695312 294.429688 204.726562 297.6875 203.136719 300.617188 C 203.078125 300.382812 203.019531 300.179688 202.988281 299.945312 C 202.429688 297.6875 202.019531 295.371094 201.753906 293.050781 C 201.164062 288.300781 201.019531 283.523438 200.195312 278.800781 C 199.988281 277.6875 198.695312 277.039062 197.664062 277.214844 C 196.488281 277.421875 195.722656 278.332031 195.632812 279.503906 C 195.222656 284.957031 195.546875 290.441406 196.3125 295.839844 C 196.664062 298.390625 197.253906 300.882812 197.8125 303.375 C 198.28125 305.664062 198.898438 307.714844 201.078125 308.949219 C 202.136719 309.5625 203.753906 309.300781 204.578125 308.359375 C 208.402344 304.019531 210.109375 298.417969 211.464844 292.90625 C 211.550781 292.613281 211.609375 292.289062 211.671875 291.996094 C 213.257812 294.078125 215.789062 294.988281 218.40625 294.519531 C 219.144531 294.371094 219.789062 294.136719 220.4375 293.816406 C 220.496094 294.167969 220.554688 294.519531 220.613281 294.871094 C 221.351562 298.59375 222.585938 302.523438 226.324219 304.253906 C 229.414062 305.664062 232.648438 305.222656 235.5625 303.640625 C 239.359375 301.558594 241.917969 297.773438 243.800781 293.992188 C 243.832031 293.960938 243.832031 293.902344 243.859375 293.875 C 243.917969 295.015625 244.007812 296.132812 244.125 297.277344 C 244.566406 301.117188 245.417969 304.902344 247.359375 308.300781 C 249.246094 311.585938 251.980469 314.605469 256.101562 313.667969 C 257.6875 313.316406 258.894531 310.324219 256.863281 309.679688 C 255.335938 309.210938 253.714844 307.011719 252.804688 305.457031 C 252.304688 304.636719 251.863281 303.785156 251.511719 302.90625 C 251.570312 303.054688 251.214844 301.96875 251.214844 301.96875 C 250.921875 300.941406 250.6875 299.914062 250.480469 298.859375 C 249.507812 293.992188 249.539062 288.976562 249.980469 284.019531 C 252.273438 282.554688 253.921875 279.621094 255.246094 277.480469 Z M 255.394531 256.308594 C 255.894531 254.871094 256.511719 253.460938 257.21875 252.144531 C 257.484375 251.671875 257.71875 251.175781 257.984375 250.734375 C 258.011719 250.882812 258.042969 251 258.070312 251.085938 C 258.101562 251.46875 258.128906 251.820312 258.160156 252.203125 C 258.1875 253.140625 258.160156 254.078125 258.101562 254.988281 C 257.953125 257.011719 257.601562 259.003906 257.101562 260.96875 C 256.160156 264.722656 254.863281 268.417969 253.15625 271.878906 C 252.511719 273.199219 251.804688 274.460938 251.039062 275.722656 C 252.039062 269.152344 253.1875 262.523438 255.394531 256.308594 Z M 227.5 281.203125 C 227.972656 280.355469 228.675781 279.621094 229.441406 278.976562 C 229.707031 278.742188 230 278.449219 230.472656 278.273438 C 230.089844 278.417969 230.855469 278.449219 230.589844 278.332031 C 232.179688 279.152344 232.503906 280.324219 232.472656 282.144531 C 232.441406 283.140625 232.265625 284.167969 231.679688 284.988281 C 231.296875 285.546875 230.765625 285.898438 230.175781 286.074219 C 229.648438 286.25 228.589844 286.425781 227.882812 286.101562 C 227.351562 285.867188 226.824219 285.191406 226.410156 284.519531 C 226.589844 283.316406 226.96875 282.203125 227.5 281.203125 Z M 203.929688 304.019531 C 203.992188 304.078125 203.960938 304.109375 203.929688 304.019531 Z M 158.414062 250.179688 C 154.527344 251 150.792969 252.40625 147.203125 254.050781 C 146.644531 256.191406 145.761719 258.300781 145.054688 260.382812 C 144.257812 262.699219 143.523438 265.046875 142.875 267.390625 C 141.550781 272.113281 140.492188 276.953125 139.757812 281.820312 C 139.050781 286.628906 138.667969 291.5 138.609375 296.367188 C 138.582031 298.828125 138.609375 301.292969 138.726562 303.757812 C 138.84375 306.191406 139.316406 308.710938 139.257812 311.148438 C 139.226562 312.085938 138.699219 313.171875 137.816406 313.582031 C 137.082031 313.933594 136.375 314.136719 135.609375 313.960938 C 135.375 313.933594 135.136719 313.84375 134.902344 313.726562 C 134.875 313.726562 134.84375 313.699219 134.816406 313.699219 C 134.078125 313.316406 133.609375 312.523438 133.550781 311.703125 C 132.929688 309.621094 133.050781 307.070312 132.929688 304.988281 C 132.785156 302.347656 132.753906 299.710938 132.785156 297.070312 C 132.871094 291.878906 133.3125 286.746094 134.078125 281.617188 C 134.816406 276.570312 135.875 271.585938 137.285156 266.6875 C 138.023438 264.167969 138.84375 261.671875 139.789062 259.210938 C 140.023438 258.566406 140.289062 257.921875 140.523438 257.273438 C 134.753906 260.089844 128.695312 262.613281 122.101562 261.585938 C 119.367188 261.175781 121.660156 257.773438 123.664062 258.039062 C 130.519531 258.976562 136.902344 255.398438 142.90625 252.289062 C 142.996094 252.171875 143.054688 252.054688 143.140625 251.90625 C 143.789062 250.96875 144.847656 250.648438 145.761719 250.851562 C 145.878906 250.792969 146.023438 250.734375 146.144531 250.675781 C 150.761719 248.535156 155.589844 246.746094 160.589844 245.835938 C 165.328125 244.988281 171.328125 244.546875 175.742188 246.835938 C 177.921875 247.976562 175.390625 250.675781 173.652344 250.382812 C 171.007812 249.972656 168.445312 249.386719 165.738281 249.355469 C 163.265625 249.328125 160.824219 249.648438 158.414062 250.179688 Z M 158.414062 250.179688 " fill-opacity="1" fill-rule="nonzero"/></g><g mask="url(#60ac9f64f6)"><g transform="matrix(1, 0, 0, 1, 151, 98)"><g clip-path="url(#8a17692f52)"><g clip-path="url(#4065790a74)"><path fill="#05445e" d="M 40.308594 0.621094 C 18.570312 0.621094 0.9375 18.253906 0.9375 39.996094 C 0.9375 69.527344 40.308594 113.121094 40.308594 113.121094 C 40.308594 113.121094 79.683594 69.527344 79.683594 39.996094 C 79.683594 18.253906 62.050781 0.621094 40.308594 0.621094 Z M 40.308594 54.058594 C 32.546875 54.058594 26.25 47.757812 26.25 39.996094 C 26.25 32.230469 32.546875 25.933594 40.308594 25.933594 C 48.074219 25.933594 54.371094 32.230469 54.371094 39.996094 C 54.371094 47.757812 48.074219 54.058594 40.308594 54.058594 Z M 40.308594 54.058594 " fill-opacity="1" fill-rule="nonzero"/></g></g></g></g><g clip-path="url(#afa6739b06)"><path fill="#30d9c8" d="M 239.265625 110.058594 C 236.84375 108.25 227.847656 99.378906 215.050781 109.59375 C 212.222656 111.648438 210.789062 112.984375 210.789062 112.984375 C 210.789062 112.984375 190.082031 75.144531 130.953125 61.226562 C 130.953125 61.226562 201.191406 89.367188 205.292969 170.402344 C 225.515625 146.34375 228.492188 116.988281 236.664062 115.679688 C 241.523438 114.902344 244.199219 117.632812 244.199219 117.632812 C 244.199219 117.632812 243.828125 113.460938 239.265625 110.058594 " fill-opacity="1" fill-rule="nonzero"/></g><path fill="#30d9c8" d="M 202.398438 178.648438 L 201.992188 170.566406 C 201.648438 163.824219 200.832031 157.289062 199.558594 150.964844 L 163.292969 170.402344 C 163.292969 170.402344 181.285156 191.40625 202.398438 178.648438 " fill-opacity="1" fill-rule="nonzero"/><path fill="#15b5b0" d="M 163.292969 170.402344 L 191.0625 210.984375 L 202.398438 178.648438 C 181.285156 191.40625 163.292969 170.402344 163.292969 170.402344 " fill-opacity="1" fill-rule="nonzero"/><g fill="#189ab4" fill-opacity="1"><g transform="translate(103.606906, 254.824202)"><g><path d="M 5.765625 -3.203125 L 14.3125 -3.203125 L 14.3125 0 L 1.359375 0 L 1.359375 -2.9375 L 9.84375 -15.78125 L 1.359375 -15.78125 L 1.359375 -18.984375 L 14.3125 -18.984375 L 14.3125 -16.046875 Z M 5.765625 -3.203125 "/></g></g></g><g fill="#189ab4" fill-opacity="1"><g transform="translate(119.273649, 254.824202)"><g><path d="M 5.6875 -15.90625 L 5.6875 -11.15625 L 12.078125 -11.15625 L 12.078125 -8.140625 L 5.6875 -8.140625 L 5.6875 -3.09375 L 12.890625 -3.09375 L 12.890625 0 L 1.875 0 L 1.875 -19.015625 L 12.890625 -19.015625 L 12.890625 -15.90625 Z M 5.6875 -15.90625 "/></g></g></g><g fill="#189ab4" fill-opacity="1"><g transform="translate(133.743626, 254.824202)"><g><path d="M 8.4375 0.1875 C 7.113281 0.1875 5.921875 -0.0351562 4.859375 -0.484375 C 3.796875 -0.941406 2.957031 -1.597656 2.34375 -2.453125 C 1.726562 -3.304688 1.410156 -4.3125 1.390625 -5.46875 L 5.46875 -5.46875 C 5.519531 -4.6875 5.796875 -4.066406 6.296875 -3.609375 C 6.796875 -3.160156 7.476562 -2.9375 8.34375 -2.9375 C 9.238281 -2.9375 9.9375 -3.148438 10.4375 -3.578125 C 10.945312 -4.003906 11.203125 -4.5625 11.203125 -5.25 C 11.203125 -5.8125 11.03125 -6.273438 10.6875 -6.640625 C 10.34375 -7.003906 9.910156 -7.289062 9.390625 -7.5 C 8.878906 -7.707031 8.171875 -7.9375 7.265625 -8.1875 C 6.023438 -8.550781 5.019531 -8.910156 4.25 -9.265625 C 3.476562 -9.617188 2.816406 -10.148438 2.265625 -10.859375 C 1.710938 -11.578125 1.4375 -12.535156 1.4375 -13.734375 C 1.4375 -14.859375 1.71875 -15.835938 2.28125 -16.671875 C 2.84375 -17.503906 3.628906 -18.144531 4.640625 -18.59375 C 5.660156 -19.039062 6.828125 -19.265625 8.140625 -19.265625 C 10.097656 -19.265625 11.6875 -18.785156 12.90625 -17.828125 C 14.132812 -16.878906 14.8125 -15.550781 14.9375 -13.84375 L 10.75 -13.84375 C 10.707031 -14.5 10.425781 -15.039062 9.90625 -15.46875 C 9.394531 -15.894531 8.710938 -16.109375 7.859375 -16.109375 C 7.117188 -16.109375 6.523438 -15.914062 6.078125 -15.53125 C 5.628906 -15.15625 5.40625 -14.601562 5.40625 -13.875 C 5.40625 -13.363281 5.570312 -12.941406 5.90625 -12.609375 C 6.25 -12.273438 6.671875 -12.003906 7.171875 -11.796875 C 7.671875 -11.585938 8.375 -11.347656 9.28125 -11.078125 C 10.507812 -10.710938 11.515625 -10.347656 12.296875 -9.984375 C 13.078125 -9.617188 13.75 -9.070312 14.3125 -8.34375 C 14.875 -7.625 15.15625 -6.675781 15.15625 -5.5 C 15.15625 -4.476562 14.890625 -3.53125 14.359375 -2.65625 C 13.835938 -1.789062 13.066406 -1.097656 12.046875 -0.578125 C 11.035156 -0.0664062 9.832031 0.1875 8.4375 0.1875 Z M 8.4375 0.1875 "/></g></g></g><g fill="#189ab4" fill-opacity="1"><g transform="translate(150.30794, 254.824202)"><g><path d="M 14.796875 -18.984375 L 14.796875 -15.90625 L 9.734375 -15.90625 L 9.734375 0 L 5.9375 0 L 5.9375 -15.90625 L 0.875 -15.90625 L 0.875 -18.984375 Z M 14.796875 -18.984375 "/></g></g></g><g fill="#189ab4" fill-opacity="1"><g transform="translate(172.475293, 254.824202)"><g><path d="M 14.796875 -18.984375 L 14.796875 -15.90625 L 9.734375 -15.90625 L 9.734375 0 L 5.9375 0 L 5.9375 -15.90625 L 0.875 -15.90625 L 0.875 -18.984375 Z M 14.796875 -18.984375 "/></g></g></g><g fill="#189ab4" fill-opacity="1"><g transform="translate(188.169238, 254.824202)"><g><path d="M 11.671875 0 L 7.484375 -7.40625 L 5.6875 -7.40625 L 5.6875 0 L 1.875 0 L 1.875 -18.984375 L 9 -18.984375 C 10.46875 -18.984375 11.71875 -18.722656 12.75 -18.203125 C 13.789062 -17.691406 14.566406 -16.992188 15.078125 -16.109375 C 15.597656 -15.234375 15.859375 -14.253906 15.859375 -13.171875 C 15.859375 -11.921875 15.492188 -10.789062 14.765625 -9.78125 C 14.046875 -8.769531 12.96875 -8.078125 11.53125 -7.703125 L 16.078125 0 Z M 5.6875 -10.25 L 8.875 -10.25 C 9.90625 -10.25 10.671875 -10.5 11.171875 -11 C 11.679688 -11.5 11.9375 -12.191406 11.9375 -13.078125 C 11.9375 -13.953125 11.679688 -14.628906 11.171875 -15.109375 C 10.671875 -15.585938 9.90625 -15.828125 8.875 -15.828125 L 5.6875 -15.828125 Z M 5.6875 -10.25 "/></g></g></g><g fill="#189ab4" fill-opacity="1"><g transform="translate(205.603934, 254.824202)"><g><path d="M 13.515625 -3.625 L 5.953125 -3.625 L 4.703125 0 L 0.703125 0 L 7.53125 -19.015625 L 11.96875 -19.015625 L 18.796875 0 L 14.765625 0 Z M 12.484375 -6.671875 L 9.734375 -14.609375 L 6.984375 -6.671875 Z M 12.484375 -6.671875 "/></g></g></g><g fill="#189ab4" fill-opacity="1"><g transform="translate(225.078561, 254.824202)"><g><path d="M 18.9375 -18.984375 L 11.96875 0 L 7.34375 0 L 0.375 -18.984375 L 4.46875 -18.984375 L 9.6875 -3.890625 L 14.875 -18.984375 Z M 18.9375 -18.984375 "/></g></g></g><g fill="#189ab4" fill-opacity="1"><g transform="translate(244.417198, 254.824202)"><g><path d="M 5.6875 -15.90625 L 5.6875 -11.15625 L 12.078125 -11.15625 L 12.078125 -8.140625 L 5.6875 -8.140625 L 5.6875 -3.09375 L 12.890625 -3.09375 L 12.890625 0 L 1.875 0 L 1.875 -19.015625 L 12.890625 -19.015625 L 12.890625 -15.90625 Z M 5.6875 -15.90625 "/></g></g></g><g fill="#189ab4" fill-opacity="1"><g transform="translate(258.887175, 254.824202)"><g><path d="M 5.6875 -3.015625 L 11.9375 -3.015625 L 11.9375 0 L 1.875 0 L 1.875 -18.984375 L 5.6875 -18.984375 Z M 5.6875 -3.015625 "/></g></g></g><g fill="#189ab4" fill-opacity="1"><g transform="translate(119.498588, 274.603722)"><g><path d="M 1.953125 0 C 1.765625 0 1.613281 -0.0625 1.5 -0.1875 C 1.394531 -0.3125 1.34375 -0.445312 1.34375 -0.59375 L 1.34375 -9.90625 C 1.34375 -10.050781 1.394531 -10.1875 1.5 -10.3125 C 1.613281 -10.4375 1.765625 -10.5 1.953125 -10.5 L 5.40625 -10.5 C 5.957031 -10.5 6.445312 -10.429688 6.875 -10.296875 C 7.300781 -10.160156 7.65625 -9.972656 7.9375 -9.734375 C 8.21875 -9.492188 8.425781 -9.207031 8.5625 -8.875 C 8.707031 -8.550781 8.78125 -8.191406 8.78125 -7.796875 C 8.78125 -7.359375 8.6875 -6.992188 8.5 -6.703125 C 8.320312 -6.421875 8.125 -6.195312 7.90625 -6.03125 C 7.644531 -5.832031 7.359375 -5.671875 7.046875 -5.546875 L 7.046875 -5.46875 C 7.441406 -5.375 7.789062 -5.222656 8.09375 -5.015625 C 8.351562 -4.828125 8.59375 -4.566406 8.8125 -4.234375 C 9.039062 -3.898438 9.15625 -3.460938 9.15625 -2.921875 C 9.15625 -2.535156 9.070312 -2.164062 8.90625 -1.8125 C 8.738281 -1.457031 8.492188 -1.144531 8.171875 -0.875 C 7.847656 -0.601562 7.453125 -0.390625 6.984375 -0.234375 C 6.523438 -0.078125 6 0 5.40625 0 Z M 5.40625 -1.046875 C 5.8125 -1.046875 6.171875 -1.097656 6.484375 -1.203125 C 6.804688 -1.304688 7.078125 -1.445312 7.296875 -1.625 C 7.515625 -1.8125 7.675781 -2.019531 7.78125 -2.25 C 7.894531 -2.488281 7.953125 -2.738281 7.953125 -3 C 7.953125 -3.257812 7.894531 -3.503906 7.78125 -3.734375 C 7.675781 -3.972656 7.515625 -4.179688 7.296875 -4.359375 C 7.078125 -4.546875 6.804688 -4.691406 6.484375 -4.796875 C 6.171875 -4.898438 5.8125 -4.953125 5.40625 -4.953125 L 2.546875 -4.953125 L 2.546875 -1.046875 Z M 5.40625 -6 C 5.738281 -6 6.035156 -6.046875 6.296875 -6.140625 C 6.566406 -6.234375 6.796875 -6.359375 6.984375 -6.515625 C 7.179688 -6.679688 7.328125 -6.863281 7.421875 -7.0625 C 7.523438 -7.269531 7.578125 -7.488281 7.578125 -7.71875 C 7.578125 -7.945312 7.523438 -8.164062 7.421875 -8.375 C 7.328125 -8.582031 7.179688 -8.765625 6.984375 -8.921875 C 6.796875 -9.085938 6.566406 -9.21875 6.296875 -9.3125 C 6.035156 -9.40625 5.738281 -9.453125 5.40625 -9.453125 L 2.546875 -9.453125 L 2.546875 -6 Z M 5.40625 -6 "/></g></g></g><g fill="#189ab4" fill-opacity="1"><g transform="translate(129.773581, 274.603722)"><g><path d="M 4.125 0.21875 C 3.65625 0.21875 3.222656 0.144531 2.828125 0 C 2.429688 -0.15625 2.085938 -0.367188 1.796875 -0.640625 C 1.515625 -0.910156 1.296875 -1.222656 1.140625 -1.578125 C 0.984375 -1.929688 0.90625 -2.304688 0.90625 -2.703125 L 0.90625 -4.578125 C 0.90625 -4.960938 0.984375 -5.332031 1.140625 -5.6875 C 1.296875 -6.039062 1.515625 -6.351562 1.796875 -6.625 C 2.085938 -6.894531 2.429688 -7.109375 2.828125 -7.265625 C 3.222656 -7.421875 3.65625 -7.5 4.125 -7.5 C 4.59375 -7.5 5.023438 -7.421875 5.421875 -7.265625 C 5.816406 -7.109375 6.15625 -6.894531 6.4375 -6.625 C 6.726562 -6.351562 6.953125 -6.039062 7.109375 -5.6875 C 7.265625 -5.332031 7.34375 -4.960938 7.34375 -4.578125 L 7.34375 -3.75 C 7.34375 -3.601562 7.289062 -3.46875 7.1875 -3.34375 C 7.082031 -3.21875 6.9375 -3.15625 6.75 -3.15625 L 2.09375 -3.15625 L 2.09375 -2.703125 C 2.09375 -2.441406 2.144531 -2.195312 2.25 -1.96875 C 2.351562 -1.738281 2.488281 -1.535156 2.65625 -1.359375 C 2.832031 -1.191406 3.046875 -1.0625 3.296875 -0.96875 C 3.546875 -0.875 3.820312 -0.828125 4.125 -0.828125 C 4.570312 -0.828125 4.925781 -0.882812 5.1875 -1 C 5.445312 -1.113281 5.660156 -1.242188 5.828125 -1.390625 C 5.992188 -1.535156 6.132812 -1.664062 6.25 -1.78125 C 6.363281 -1.894531 6.503906 -1.953125 6.671875 -1.953125 C 6.828125 -1.953125 6.953125 -1.898438 7.046875 -1.796875 C 7.148438 -1.703125 7.203125 -1.578125 7.203125 -1.421875 C 7.203125 -1.296875 7.128906 -1.132812 6.984375 -0.9375 C 6.847656 -0.75 6.648438 -0.570312 6.390625 -0.40625 C 6.128906 -0.238281 5.804688 -0.09375 5.421875 0.03125 C 5.046875 0.15625 4.613281 0.21875 4.125 0.21875 Z M 6.15625 -4.203125 L 6.15625 -4.578125 C 6.15625 -4.835938 6.101562 -5.082031 6 -5.3125 C 5.894531 -5.539062 5.753906 -5.738281 5.578125 -5.90625 C 5.410156 -6.082031 5.203125 -6.21875 4.953125 -6.3125 C 4.703125 -6.40625 4.425781 -6.453125 4.125 -6.453125 C 3.820312 -6.453125 3.546875 -6.40625 3.296875 -6.3125 C 3.046875 -6.21875 2.832031 -6.082031 2.65625 -5.90625 C 2.488281 -5.738281 2.351562 -5.539062 2.25 -5.3125 C 2.144531 -5.082031 2.09375 -4.835938 2.09375 -4.578125 L 2.09375 -4.203125 Z M 6.15625 -4.203125 "/></g></g></g><g fill="#189ab4" fill-opacity="1"><g transform="translate(138.323572, 274.603722)"><g><path d="M 3.53125 0.21875 C 3.113281 0.21875 2.738281 0.160156 2.40625 0.046875 C 2.082031 -0.0546875 1.796875 -0.1875 1.546875 -0.34375 C 1.304688 -0.507812 1.101562 -0.6875 0.9375 -0.875 C 0.78125 -1.070312 0.664062 -1.253906 0.59375 -1.421875 C 0.570312 -1.453125 0.5625 -1.488281 0.5625 -1.53125 C 0.539062 -1.613281 0.53125 -1.703125 0.53125 -1.796875 C 0.53125 -1.953125 0.578125 -2.078125 0.671875 -2.171875 C 0.773438 -2.273438 0.898438 -2.328125 1.046875 -2.328125 C 1.203125 -2.328125 1.316406 -2.285156 1.390625 -2.203125 C 1.472656 -2.128906 1.5625 -2.019531 1.65625 -1.875 C 1.738281 -1.726562 1.832031 -1.585938 1.9375 -1.453125 C 2.050781 -1.328125 2.179688 -1.21875 2.328125 -1.125 C 2.472656 -1.03125 2.644531 -0.957031 2.84375 -0.90625 C 3.039062 -0.851562 3.269531 -0.828125 3.53125 -0.828125 C 3.820312 -0.828125 4.082031 -0.859375 4.3125 -0.921875 C 4.539062 -0.992188 4.726562 -1.082031 4.875 -1.1875 C 5.019531 -1.289062 5.128906 -1.410156 5.203125 -1.546875 C 5.285156 -1.679688 5.328125 -1.816406 5.328125 -1.953125 C 5.328125 -2.242188 5.210938 -2.460938 4.984375 -2.609375 C 4.753906 -2.753906 4.460938 -2.878906 4.109375 -2.984375 C 3.765625 -3.085938 3.394531 -3.179688 3 -3.265625 C 2.601562 -3.359375 2.226562 -3.484375 1.875 -3.640625 C 1.53125 -3.796875 1.242188 -4.003906 1.015625 -4.265625 C 0.785156 -4.523438 0.671875 -4.878906 0.671875 -5.328125 C 0.671875 -5.609375 0.734375 -5.878906 0.859375 -6.140625 C 0.984375 -6.398438 1.160156 -6.628906 1.390625 -6.828125 C 1.628906 -7.035156 1.914062 -7.195312 2.25 -7.3125 C 2.59375 -7.4375 2.96875 -7.5 3.375 -7.5 C 3.78125 -7.5 4.148438 -7.445312 4.484375 -7.34375 C 4.816406 -7.25 5.101562 -7.128906 5.34375 -6.984375 C 5.582031 -6.835938 5.773438 -6.679688 5.921875 -6.515625 C 6.066406 -6.347656 6.164062 -6.203125 6.21875 -6.078125 C 6.226562 -6.054688 6.238281 -6.023438 6.25 -5.984375 C 6.257812 -5.953125 6.269531 -5.914062 6.28125 -5.875 C 6.289062 -5.84375 6.296875 -5.8125 6.296875 -5.78125 C 6.296875 -5.625 6.242188 -5.492188 6.140625 -5.390625 C 6.046875 -5.296875 5.925781 -5.25 5.78125 -5.25 C 5.625 -5.25 5.507812 -5.28125 5.4375 -5.34375 C 5.363281 -5.414062 5.273438 -5.507812 5.171875 -5.625 C 4.984375 -5.851562 4.757812 -6.046875 4.5 -6.203125 C 4.238281 -6.367188 3.863281 -6.453125 3.375 -6.453125 C 2.882812 -6.453125 2.507812 -6.335938 2.25 -6.109375 C 2 -5.890625 1.875 -5.628906 1.875 -5.328125 C 1.875 -5.046875 1.988281 -4.832031 2.21875 -4.6875 C 2.445312 -4.539062 2.734375 -4.421875 3.078125 -4.328125 C 3.421875 -4.234375 3.789062 -4.144531 4.1875 -4.0625 C 4.59375 -3.976562 4.96875 -3.851562 5.3125 -3.6875 C 5.65625 -3.53125 5.941406 -3.316406 6.171875 -3.046875 C 6.410156 -2.773438 6.53125 -2.410156 6.53125 -1.953125 C 6.53125 -1.691406 6.460938 -1.429688 6.328125 -1.171875 C 6.191406 -0.910156 5.992188 -0.675781 5.734375 -0.46875 C 5.472656 -0.269531 5.15625 -0.109375 4.78125 0.015625 C 4.414062 0.148438 4 0.21875 3.53125 0.21875 Z M 3.53125 0.21875 "/></g></g></g><g fill="#189ab4" fill-opacity="1"><g transform="translate(145.898561, 274.603722)"><g><path d="M 3.90625 0 C 3.5625 0 3.242188 -0.0546875 2.953125 -0.171875 C 2.671875 -0.285156 2.425781 -0.441406 2.21875 -0.640625 C 2.019531 -0.847656 1.863281 -1.09375 1.75 -1.375 C 1.632812 -1.664062 1.578125 -1.984375 1.578125 -2.328125 L 1.578125 -6.15625 L 0.828125 -6.15625 C 0.671875 -6.15625 0.539062 -6.203125 0.4375 -6.296875 C 0.34375 -6.398438 0.296875 -6.523438 0.296875 -6.671875 C 0.296875 -6.828125 0.34375 -6.953125 0.4375 -7.046875 C 0.539062 -7.148438 0.671875 -7.203125 0.828125 -7.203125 L 1.578125 -7.203125 L 1.578125 -8.625 C 1.578125 -8.769531 1.628906 -8.90625 1.734375 -9.03125 C 1.835938 -9.15625 1.984375 -9.21875 2.171875 -9.21875 C 2.359375 -9.21875 2.503906 -9.15625 2.609375 -9.03125 C 2.722656 -8.90625 2.78125 -8.769531 2.78125 -8.625 L 2.78125 -7.203125 L 4.875 -7.203125 C 5.019531 -7.203125 5.144531 -7.148438 5.25 -7.046875 C 5.351562 -6.953125 5.40625 -6.828125 5.40625 -6.671875 C 5.40625 -6.523438 5.351562 -6.398438 5.25 -6.296875 C 5.144531 -6.203125 5.019531 -6.15625 4.875 -6.15625 L 2.78125 -6.15625 L 2.78125 -2.328125 C 2.78125 -1.898438 2.878906 -1.578125 3.078125 -1.359375 C 3.285156 -1.148438 3.5625 -1.046875 3.90625 -1.046875 L 5.25 -1.046875 C 5.394531 -1.046875 5.519531 -0.992188 5.625 -0.890625 C 5.726562 -0.796875 5.78125 -0.675781 5.78125 -0.53125 C 5.78125 -0.375 5.726562 -0.242188 5.625 -0.140625 C 5.519531 -0.046875 5.394531 0 5.25 0 Z M 3.90625 0 "/></g></g></g><g fill="#189ab4" fill-opacity="1"><g transform="translate(152.273555, 274.603722)"><g/></g></g><g fill="#189ab4" fill-opacity="1"><g transform="translate(156.323556, 274.603722)"><g><path d="M 4.203125 0.15625 C 4.015625 0.15625 3.863281 0.09375 3.75 -0.03125 C 3.644531 -0.15625 3.59375 -0.296875 3.59375 -0.453125 L 3.59375 -9.453125 L 0.75 -9.453125 C 0.5625 -9.453125 0.414062 -9.5 0.3125 -9.59375 C 0.207031 -9.695312 0.15625 -9.820312 0.15625 -9.96875 C 0.15625 -10.125 0.207031 -10.25 0.3125 -10.34375 C 0.414062 -10.445312 0.5625 -10.5 0.75 -10.5 L 7.65625 -10.5 C 7.84375 -10.5 7.988281 -10.445312 8.09375 -10.34375 C 8.195312 -10.25 8.25 -10.125 8.25 -9.96875 C 8.25 -9.820312 8.195312 -9.695312 8.09375 -9.59375 C 7.988281 -9.5 7.84375 -9.453125 7.65625 -9.453125 L 4.796875 -9.453125 L 4.796875 -0.453125 C 4.796875 -0.296875 4.742188 -0.15625 4.640625 -0.03125 C 4.535156 0.09375 4.390625 0.15625 4.203125 0.15625 Z M 4.203125 0.15625 "/></g></g></g><g fill="#189ab4" fill-opacity="1"><g transform="translate(165.173552, 274.603722)"><g><path d="M 1.796875 0.078125 C 1.609375 0.078125 1.460938 0.015625 1.359375 -0.109375 C 1.253906 -0.234375 1.203125 -0.375 1.203125 -0.53125 L 1.203125 -6.75 C 1.203125 -6.894531 1.253906 -7.03125 1.359375 -7.15625 C 1.460938 -7.28125 1.609375 -7.34375 1.796875 -7.34375 C 1.984375 -7.34375 2.128906 -7.28125 2.234375 -7.15625 C 2.347656 -7.03125 2.40625 -6.894531 2.40625 -6.75 L 2.40625 -6.59375 L 2.46875 -6.59375 C 2.570312 -6.769531 2.707031 -6.921875 2.875 -7.046875 C 3.019531 -7.160156 3.203125 -7.265625 3.421875 -7.359375 C 3.640625 -7.453125 3.898438 -7.5 4.203125 -7.5 L 4.875 -7.5 C 5.019531 -7.5 5.144531 -7.445312 5.25 -7.34375 C 5.351562 -7.25 5.40625 -7.125 5.40625 -6.96875 C 5.40625 -6.820312 5.351562 -6.695312 5.25 -6.59375 C 5.144531 -6.5 5.019531 -6.453125 4.875 -6.453125 L 4.046875 -6.453125 C 3.816406 -6.453125 3.601562 -6.40625 3.40625 -6.3125 C 3.207031 -6.226562 3.03125 -6.101562 2.875 -5.9375 C 2.726562 -5.78125 2.613281 -5.59375 2.53125 -5.375 C 2.445312 -5.15625 2.40625 -4.914062 2.40625 -4.65625 L 2.40625 -0.53125 C 2.40625 -0.375 2.347656 -0.234375 2.234375 -0.109375 C 2.128906 0.015625 1.984375 0.078125 1.796875 0.078125 Z M 1.796875 0.078125 "/></g></g></g><g fill="#189ab4" fill-opacity="1"><g transform="translate(171.023548, 274.603722)"><g><path d="M 3.15625 0.21875 C 2.769531 0.21875 2.425781 0.160156 2.125 0.046875 C 1.832031 -0.0664062 1.570312 -0.222656 1.34375 -0.421875 C 1.125 -0.617188 0.957031 -0.851562 0.84375 -1.125 C 0.726562 -1.40625 0.671875 -1.707031 0.671875 -2.03125 C 0.671875 -2.320312 0.734375 -2.601562 0.859375 -2.875 C 0.984375 -3.144531 1.164062 -3.382812 1.40625 -3.59375 C 1.644531 -3.8125 1.9375 -3.976562 2.28125 -4.09375 C 2.632812 -4.21875 3.023438 -4.28125 3.453125 -4.28125 L 5.625 -4.28125 L 5.625 -4.71875 C 5.625 -5.207031 5.453125 -5.617188 5.109375 -5.953125 C 4.773438 -6.285156 4.320312 -6.453125 3.75 -6.453125 C 3.300781 -6.453125 2.953125 -6.363281 2.703125 -6.1875 C 2.460938 -6.007812 2.285156 -5.847656 2.171875 -5.703125 C 2.066406 -5.546875 1.960938 -5.429688 1.859375 -5.359375 C 1.765625 -5.285156 1.644531 -5.25 1.5 -5.25 C 1.351562 -5.25 1.226562 -5.296875 1.125 -5.390625 C 1.019531 -5.492188 0.96875 -5.625 0.96875 -5.78125 C 0.96875 -5.882812 0.992188 -5.988281 1.046875 -6.09375 C 1.066406 -6.144531 1.09375 -6.1875 1.125 -6.21875 C 1.1875 -6.3125 1.285156 -6.429688 1.421875 -6.578125 C 1.566406 -6.722656 1.75 -6.863281 1.96875 -7 C 2.1875 -7.132812 2.441406 -7.25 2.734375 -7.34375 C 3.035156 -7.445312 3.375 -7.5 3.75 -7.5 C 4.195312 -7.5 4.609375 -7.421875 4.984375 -7.265625 C 5.359375 -7.117188 5.679688 -6.921875 5.953125 -6.671875 C 6.234375 -6.421875 6.445312 -6.125 6.59375 -5.78125 C 6.75 -5.445312 6.828125 -5.09375 6.828125 -4.71875 L 6.828125 -0.53125 C 6.828125 -0.375 6.773438 -0.234375 6.671875 -0.109375 C 6.566406 0.015625 6.414062 0.078125 6.21875 0.078125 C 6.03125 0.078125 5.882812 0.015625 5.78125 -0.109375 C 5.675781 -0.234375 5.625 -0.375 5.625 -0.53125 L 5.625 -0.59375 L 5.546875 -0.59375 C 5.359375 -0.4375 5.144531 -0.300781 4.90625 -0.1875 C 4.695312 -0.0703125 4.445312 0.0195312 4.15625 0.09375 C 3.863281 0.175781 3.53125 0.21875 3.15625 0.21875 Z M 3.296875 -0.828125 C 3.722656 -0.828125 4.078125 -0.875 4.359375 -0.96875 C 4.648438 -1.070312 4.890625 -1.1875 5.078125 -1.3125 C 5.304688 -1.445312 5.488281 -1.609375 5.625 -1.796875 L 5.625 -3.21875 L 3.453125 -3.21875 C 2.921875 -3.21875 2.523438 -3.101562 2.265625 -2.875 C 2.003906 -2.644531 1.875 -2.363281 1.875 -2.03125 C 1.875 -1.6875 2 -1.398438 2.25 -1.171875 C 2.5 -0.941406 2.847656 -0.828125 3.296875 -0.828125 Z M 3.296875 -0.828125 "/></g></g></g><g fill="#189ab4" fill-opacity="1"><g transform="translate(179.348535, 274.603722)"><g><path d="M 3.59375 0.21875 C 3.363281 0.21875 3.175781 0.148438 3.03125 0.015625 C 2.882812 -0.109375 2.773438 -0.265625 2.703125 -0.453125 L 0.375 -6.21875 C 0.34375 -6.300781 0.304688 -6.390625 0.265625 -6.484375 C 0.234375 -6.578125 0.21875 -6.664062 0.21875 -6.75 C 0.21875 -6.894531 0.269531 -7.03125 0.375 -7.15625 C 0.488281 -7.28125 0.640625 -7.34375 0.828125 -7.34375 C 0.972656 -7.34375 1.09375 -7.296875 1.1875 -7.203125 C 1.289062 -7.109375 1.367188 -7.007812 1.421875 -6.90625 L 3.5625 -1.5 L 3.625 -1.5 L 5.78125 -6.90625 C 5.820312 -7.007812 5.894531 -7.109375 6 -7.203125 C 6.101562 -7.296875 6.226562 -7.34375 6.375 -7.34375 C 6.5625 -7.34375 6.707031 -7.28125 6.8125 -7.15625 C 6.914062 -7.03125 6.96875 -6.894531 6.96875 -6.75 C 6.96875 -6.664062 6.953125 -6.578125 6.921875 -6.484375 C 6.890625 -6.390625 6.859375 -6.300781 6.828125 -6.21875 L 4.5 -0.453125 C 4.414062 -0.265625 4.300781 -0.109375 4.15625 0.015625 C 4.007812 0.148438 3.820312 0.21875 3.59375 0.21875 Z M 3.59375 0.21875 "/></g></g></g><g fill="#189ab4" fill-opacity="1"><g transform="translate(186.998527, 274.603722)"><g><path d="M 4.125 0.21875 C 3.65625 0.21875 3.222656 0.144531 2.828125 0 C 2.429688 -0.15625 2.085938 -0.367188 1.796875 -0.640625 C 1.515625 -0.910156 1.296875 -1.222656 1.140625 -1.578125 C 0.984375 -1.929688 0.90625 -2.304688 0.90625 -2.703125 L 0.90625 -4.578125 C 0.90625 -4.960938 0.984375 -5.332031 1.140625 -5.6875 C 1.296875 -6.039062 1.515625 -6.351562 1.796875 -6.625 C 2.085938 -6.894531 2.429688 -7.109375 2.828125 -7.265625 C 3.222656 -7.421875 3.65625 -7.5 4.125 -7.5 C 4.59375 -7.5 5.023438 -7.421875 5.421875 -7.265625 C 5.816406 -7.109375 6.15625 -6.894531 6.4375 -6.625 C 6.726562 -6.351562 6.953125 -6.039062 7.109375 -5.6875 C 7.265625 -5.332031 7.34375 -4.960938 7.34375 -4.578125 L 7.34375 -3.75 C 7.34375 -3.601562 7.289062 -3.46875 7.1875 -3.34375 C 7.082031 -3.21875 6.9375 -3.15625 6.75 -3.15625 L 2.09375 -3.15625 L 2.09375 -2.703125 C 2.09375 -2.441406 2.144531 -2.195312 2.25 -1.96875 C 2.351562 -1.738281 2.488281 -1.535156 2.65625 -1.359375 C 2.832031 -1.191406 3.046875 -1.0625 3.296875 -0.96875 C 3.546875 -0.875 3.820312 -0.828125 4.125 -0.828125 C 4.570312 -0.828125 4.925781 -0.882812 5.1875 -1 C 5.445312 -1.113281 5.660156 -1.242188 5.828125 -1.390625 C 5.992188 -1.535156 6.132812 -1.664062 6.25 -1.78125 C 6.363281 -1.894531 6.503906 -1.953125 6.671875 -1.953125 C 6.828125 -1.953125 6.953125 -1.898438 7.046875 -1.796875 C 7.148438 -1.703125 7.203125 -1.578125 7.203125 -1.421875 C 7.203125 -1.296875 7.128906 -1.132812 6.984375 -0.9375 C 6.847656 -0.75 6.648438 -0.570312 6.390625 -0.40625 C 6.128906 -0.238281 5.804688 -0.09375 5.421875 0.03125 C 5.046875 0.15625 4.613281 0.21875 4.125 0.21875 Z M 6.15625 -4.203125 L 6.15625 -4.578125 C 6.15625 -4.835938 6.101562 -5.082031 6 -5.3125 C 5.894531 -5.539062 5.753906 -5.738281 5.578125 -5.90625 C 5.410156 -6.082031 5.203125 -6.21875 4.953125 -6.3125 C 4.703125 -6.40625 4.425781 -6.453125 4.125 -6.453125 C 3.820312 -6.453125 3.546875 -6.40625 3.296875 -6.3125 C 3.046875 -6.21875 2.832031 -6.082031 2.65625 -5.90625 C 2.488281 -5.738281 2.351562 -5.539062 2.25 -5.3125 C 2.144531 -5.082031 2.09375 -4.835938 2.09375 -4.578125 L 2.09375 -4.203125 Z M 6.15625 -4.203125 "/></g></g></g><g fill="#189ab4" fill-opacity="1"><g transform="translate(195.548516, 274.603722)"><g><path d="M 1.796875 0.078125 C 1.609375 0.078125 1.460938 0.015625 1.359375 -0.109375 C 1.253906 -0.234375 1.203125 -0.375 1.203125 -0.53125 L 1.203125 -9.828125 C 1.203125 -9.972656 1.253906 -10.109375 1.359375 -10.234375 C 1.460938 -10.359375 1.609375 -10.421875 1.796875 -10.421875 C 1.984375 -10.421875 2.128906 -10.359375 2.234375 -10.234375 C 2.347656 -10.109375 2.40625 -9.972656 2.40625 -9.828125 L 2.40625 -0.53125 C 2.40625 -0.375 2.347656 -0.234375 2.234375 -0.109375 C 2.128906 0.015625 1.984375 0.078125 1.796875 0.078125 Z M 1.796875 0.078125 "/></g></g></g><g fill="#189ab4" fill-opacity="1"><g transform="translate(199.598517, 274.603722)"><g/></g></g><g fill="#189ab4" fill-opacity="1"><g transform="translate(203.648518, 274.603722)"><g><path d="M 0.828125 0.15625 C 0.640625 0.15625 0.488281 0.09375 0.375 -0.03125 C 0.269531 -0.15625 0.21875 -0.296875 0.21875 -0.453125 C 0.21875 -0.515625 0.226562 -0.582031 0.25 -0.65625 C 0.257812 -0.695312 0.273438 -0.726562 0.296875 -0.75 L 3.90625 -9.96875 C 4.019531 -10.269531 4.140625 -10.484375 4.265625 -10.609375 C 4.390625 -10.734375 4.566406 -10.796875 4.796875 -10.796875 C 5.023438 -10.796875 5.203125 -10.734375 5.328125 -10.609375 C 5.453125 -10.484375 5.578125 -10.269531 5.703125 -9.96875 L 9.296875 -0.75 C 9.304688 -0.726562 9.316406 -0.695312 9.328125 -0.65625 C 9.335938 -0.625 9.347656 -0.59375 9.359375 -0.5625 C 9.367188 -0.53125 9.375 -0.492188 9.375 -0.453125 C 9.375 -0.296875 9.320312 -0.15625 9.21875 -0.03125 C 9.113281 0.09375 8.96875 0.15625 8.78125 0.15625 C 8.625 0.15625 8.5 0.113281 8.40625 0.03125 C 8.320312 -0.0507812 8.242188 -0.1875 8.171875 -0.375 L 7.28125 -2.78125 L 2.328125 -2.78125 L 1.421875 -0.375 C 1.347656 -0.1875 1.265625 -0.0507812 1.171875 0.03125 C 1.085938 0.113281 0.972656 0.15625 0.828125 0.15625 Z M 6.828125 -3.828125 L 4.828125 -9.15625 L 4.765625 -9.15625 L 2.78125 -3.828125 Z M 6.828125 -3.828125 "/></g></g></g><g fill="#189ab4" fill-opacity="1"><g transform="translate(213.698507, 274.603722)"><g><path d="M 4.125 3.296875 C 3.675781 3.296875 3.269531 3.234375 2.90625 3.109375 C 2.550781 2.984375 2.242188 2.835938 1.984375 2.671875 C 1.734375 2.503906 1.539062 2.320312 1.40625 2.125 C 1.269531 1.9375 1.203125 1.78125 1.203125 1.65625 C 1.203125 1.5 1.25 1.367188 1.34375 1.265625 C 1.445312 1.171875 1.570312 1.125 1.71875 1.125 C 1.875 1.125 2.007812 1.179688 2.125 1.296875 C 2.25 1.410156 2.394531 1.539062 2.5625 1.6875 C 2.726562 1.832031 2.929688 1.960938 3.171875 2.078125 C 3.421875 2.191406 3.738281 2.25 4.125 2.25 C 4.695312 2.25 5.148438 2.082031 5.484375 1.75 C 5.828125 1.425781 6 1.019531 6 0.53125 L 6 -0.96875 L 5.921875 -0.96875 C 5.773438 -0.800781 5.609375 -0.65625 5.421875 -0.53125 C 5.242188 -0.414062 5.03125 -0.3125 4.78125 -0.21875 C 4.53125 -0.125 4.238281 -0.078125 3.90625 -0.078125 C 3.488281 -0.078125 3.097656 -0.15625 2.734375 -0.3125 C 2.367188 -0.46875 2.050781 -0.675781 1.78125 -0.9375 C 1.507812 -1.207031 1.296875 -1.519531 1.140625 -1.875 C 0.984375 -2.238281 0.90625 -2.613281 0.90625 -3 L 0.90625 -4.578125 C 0.90625 -4.960938 0.984375 -5.332031 1.140625 -5.6875 C 1.296875 -6.039062 1.507812 -6.351562 1.78125 -6.625 C 2.050781 -6.894531 2.367188 -7.109375 2.734375 -7.265625 C 3.097656 -7.421875 3.488281 -7.5 3.90625 -7.5 C 4.238281 -7.5 4.53125 -7.453125 4.78125 -7.359375 C 5.03125 -7.265625 5.242188 -7.160156 5.421875 -7.046875 C 5.609375 -6.921875 5.773438 -6.769531 5.921875 -6.59375 L 6 -6.59375 L 6 -6.75 C 6 -6.894531 6.050781 -7.03125 6.15625 -7.15625 C 6.257812 -7.28125 6.40625 -7.34375 6.59375 -7.34375 C 6.789062 -7.34375 6.941406 -7.28125 7.046875 -7.15625 C 7.148438 -7.03125 7.203125 -6.894531 7.203125 -6.75 L 7.203125 0.53125 C 7.203125 0.90625 7.125 1.257812 6.96875 1.59375 C 6.820312 1.925781 6.609375 2.21875 6.328125 2.46875 C 6.054688 2.71875 5.734375 2.914062 5.359375 3.0625 C 4.984375 3.21875 4.570312 3.296875 4.125 3.296875 Z M 4.046875 -1.125 C 4.328125 -1.125 4.585938 -1.171875 4.828125 -1.265625 C 5.066406 -1.359375 5.269531 -1.488281 5.4375 -1.65625 C 5.613281 -1.832031 5.75 -2.035156 5.84375 -2.265625 C 5.945312 -2.492188 6 -2.738281 6 -3 L 6 -4.578125 C 6 -4.835938 5.945312 -5.082031 5.84375 -5.3125 C 5.75 -5.539062 5.613281 -5.738281 5.4375 -5.90625 C 5.269531 -6.082031 5.066406 -6.21875 4.828125 -6.3125 C 4.585938 -6.40625 4.328125 -6.453125 4.046875 -6.453125 C 3.765625 -6.453125 3.503906 -6.40625 3.265625 -6.3125 C 3.023438 -6.21875 2.820312 -6.082031 2.65625 -5.90625 C 2.488281 -5.738281 2.351562 -5.539062 2.25 -5.3125 C 2.144531 -5.082031 2.09375 -4.835938 2.09375 -4.578125 L 2.09375 -3 C 2.09375 -2.738281 2.144531 -2.492188 2.25 -2.265625 C 2.351562 -2.035156 2.488281 -1.832031 2.65625 -1.65625 C 2.820312 -1.488281 3.023438 -1.359375 3.265625 -1.265625 C 3.503906 -1.171875 3.765625 -1.125 4.046875 -1.125 Z M 4.046875 -1.125 "/></g></g></g><g fill="#189ab4" fill-opacity="1"><g transform="translate(222.548508, 274.603722)"><g><path d="M 4.125 0.21875 C 3.65625 0.21875 3.222656 0.144531 2.828125 0 C 2.429688 -0.15625 2.085938 -0.367188 1.796875 -0.640625 C 1.515625 -0.910156 1.296875 -1.222656 1.140625 -1.578125 C 0.984375 -1.929688 0.90625 -2.304688 0.90625 -2.703125 L 0.90625 -4.578125 C 0.90625 -4.960938 0.984375 -5.332031 1.140625 -5.6875 C 1.296875 -6.039062 1.515625 -6.351562 1.796875 -6.625 C 2.085938 -6.894531 2.429688 -7.109375 2.828125 -7.265625 C 3.222656 -7.421875 3.65625 -7.5 4.125 -7.5 C 4.59375 -7.5 5.023438 -7.421875 5.421875 -7.265625 C 5.816406 -7.109375 6.15625 -6.894531 6.4375 -6.625 C 6.726562 -6.351562 6.953125 -6.039062 7.109375 -5.6875 C 7.265625 -5.332031 7.34375 -4.960938 7.34375 -4.578125 L 7.34375 -3.75 C 7.34375 -3.601562 7.289062 -3.46875 7.1875 -3.34375 C 7.082031 -3.21875 6.9375 -3.15625 6.75 -3.15625 L 2.09375 -3.15625 L 2.09375 -2.703125 C 2.09375 -2.441406 2.144531 -2.195312 2.25 -1.96875 C 2.351562 -1.738281 2.488281 -1.535156 2.65625 -1.359375 C 2.832031 -1.191406 3.046875 -1.0625 3.296875 -0.96875 C 3.546875 -0.875 3.820312 -0.828125 4.125 -0.828125 C 4.570312 -0.828125 4.925781 -0.882812 5.1875 -1 C 5.445312 -1.113281 5.660156 -1.242188 5.828125 -1.390625 C 5.992188 -1.535156 6.132812 -1.664062 6.25 -1.78125 C 6.363281 -1.894531 6.503906 -1.953125 6.671875 -1.953125 C 6.828125 -1.953125 6.953125 -1.898438 7.046875 -1.796875 C 7.148438 -1.703125 7.203125 -1.578125 7.203125 -1.421875 C 7.203125 -1.296875 7.128906 -1.132812 6.984375 -0.9375 C 6.847656 -0.75 6.648438 -0.570312 6.390625 -0.40625 C 6.128906 -0.238281 5.804688 -0.09375 5.421875 0.03125 C 5.046875 0.15625 4.613281 0.21875 4.125 0.21875 Z M 6.15625 -4.203125 L 6.15625 -4.578125 C 6.15625 -4.835938 6.101562 -5.082031 6 -5.3125 C 5.894531 -5.539062 5.753906 -5.738281 5.578125 -5.90625 C 5.410156 -6.082031 5.203125 -6.21875 4.953125 -6.3125 C 4.703125 -6.40625 4.425781 -6.453125 4.125 -6.453125 C 3.820312 -6.453125 3.546875 -6.40625 3.296875 -6.3125 C 3.046875 -6.21875 2.832031 -6.082031 2.65625 -5.90625 C 2.488281 -5.738281 2.351562 -5.539062 2.25 -5.3125 C 2.144531 -5.082031 2.09375 -4.835938 2.09375 -4.578125 L 2.09375 -4.203125 Z M 6.15625 -4.203125 "/></g></g></g><g fill="#189ab4" fill-opacity="1"><g transform="translate(231.098503, 274.603722)"><g><path d="M 1.796875 0.078125 C 1.609375 0.078125 1.460938 0.015625 1.359375 -0.109375 C 1.253906 -0.234375 1.203125 -0.375 1.203125 -0.53125 L 1.203125 -6.75 C 1.203125 -6.894531 1.253906 -7.03125 1.359375 -7.15625 C 1.460938 -7.28125 1.609375 -7.34375 1.796875 -7.34375 C 1.984375 -7.34375 2.128906 -7.28125 2.234375 -7.15625 C 2.347656 -7.03125 2.40625 -6.894531 2.40625 -6.75 L 2.40625 -6.59375 L 2.46875 -6.59375 C 2.613281 -6.769531 2.785156 -6.921875 2.984375 -7.046875 C 3.148438 -7.160156 3.363281 -7.265625 3.625 -7.359375 C 3.894531 -7.453125 4.210938 -7.5 4.578125 -7.5 C 4.941406 -7.5 5.296875 -7.421875 5.640625 -7.265625 C 5.984375 -7.117188 6.28125 -6.921875 6.53125 -6.671875 C 6.78125 -6.421875 6.976562 -6.125 7.125 -5.78125 C 7.269531 -5.445312 7.34375 -5.09375 7.34375 -4.71875 L 7.34375 -0.53125 C 7.34375 -0.375 7.289062 -0.234375 7.1875 -0.109375 C 7.082031 0.015625 6.9375 0.078125 6.75 0.078125 C 6.5625 0.078125 6.414062 0.015625 6.3125 -0.109375 C 6.207031 -0.234375 6.15625 -0.375 6.15625 -0.53125 L 6.15625 -4.71875 C 6.15625 -5.207031 5.984375 -5.617188 5.640625 -5.953125 C 5.296875 -6.285156 4.84375 -6.453125 4.28125 -6.453125 C 3.707031 -6.453125 3.25 -6.285156 2.90625 -5.953125 C 2.570312 -5.617188 2.40625 -5.207031 2.40625 -4.71875 L 2.40625 -0.53125 C 2.40625 -0.375 2.347656 -0.234375 2.234375 -0.109375 C 2.128906 0.015625 1.984375 0.078125 1.796875 0.078125 Z M 1.796875 0.078125 "/></g></g></g><g fill="#189ab4" fill-opacity="1"><g transform="translate(239.948505, 274.603722)"><g><path d="M 4.125 0.21875 C 3.65625 0.21875 3.222656 0.144531 2.828125 0 C 2.429688 -0.15625 2.085938 -0.367188 1.796875 -0.640625 C 1.515625 -0.910156 1.296875 -1.222656 1.140625 -1.578125 C 0.984375 -1.929688 0.90625 -2.304688 0.90625 -2.703125 L 0.90625 -4.578125 C 0.90625 -4.960938 0.984375 -5.332031 1.140625 -5.6875 C 1.296875 -6.039062 1.515625 -6.351562 1.796875 -6.625 C 2.085938 -6.894531 2.429688 -7.109375 2.828125 -7.265625 C 3.222656 -7.421875 3.65625 -7.5 4.125 -7.5 C 4.507812 -7.5 4.863281 -7.441406 5.1875 -7.328125 C 5.507812 -7.222656 5.789062 -7.085938 6.03125 -6.921875 C 6.269531 -6.753906 6.46875 -6.578125 6.625 -6.390625 C 6.78125 -6.203125 6.894531 -6.019531 6.96875 -5.84375 C 6.976562 -5.820312 6.988281 -5.789062 7 -5.75 C 7.007812 -5.71875 7.019531 -5.675781 7.03125 -5.625 C 7.039062 -5.570312 7.046875 -5.519531 7.046875 -5.46875 C 7.046875 -5.320312 6.992188 -5.195312 6.890625 -5.09375 C 6.796875 -5 6.675781 -4.953125 6.53125 -4.953125 C 6.375 -4.953125 6.253906 -4.988281 6.171875 -5.0625 C 6.097656 -5.132812 6.015625 -5.25 5.921875 -5.40625 C 5.734375 -5.695312 5.507812 -5.941406 5.25 -6.140625 C 4.988281 -6.347656 4.613281 -6.453125 4.125 -6.453125 C 3.820312 -6.453125 3.546875 -6.40625 3.296875 -6.3125 C 3.046875 -6.21875 2.832031 -6.082031 2.65625 -5.90625 C 2.488281 -5.738281 2.351562 -5.539062 2.25 -5.3125 C 2.144531 -5.082031 2.09375 -4.835938 2.09375 -4.578125 L 2.09375 -2.703125 C 2.09375 -2.441406 2.144531 -2.195312 2.25 -1.96875 C 2.351562 -1.738281 2.488281 -1.535156 2.65625 -1.359375 C 2.832031 -1.191406 3.046875 -1.0625 3.296875 -0.96875 C 3.546875 -0.875 3.820312 -0.828125 4.125 -0.828125 C 4.644531 -0.828125 5.0625 -0.953125 5.375 -1.203125 C 5.6875 -1.453125 5.921875 -1.726562 6.078125 -2.03125 C 6.148438 -2.175781 6.226562 -2.285156 6.3125 -2.359375 C 6.40625 -2.429688 6.523438 -2.46875 6.671875 -2.46875 C 6.828125 -2.46875 6.953125 -2.414062 7.046875 -2.3125 C 7.148438 -2.21875 7.203125 -2.097656 7.203125 -1.953125 C 7.203125 -1.890625 7.195312 -1.832031 7.1875 -1.78125 C 7.175781 -1.738281 7.164062 -1.707031 7.15625 -1.6875 C 7.144531 -1.644531 7.132812 -1.609375 7.125 -1.578125 C 7.039062 -1.390625 6.914062 -1.1875 6.75 -0.96875 C 6.59375 -0.757812 6.382812 -0.566406 6.125 -0.390625 C 5.875 -0.210938 5.578125 -0.0664062 5.234375 0.046875 C 4.898438 0.160156 4.53125 0.21875 4.125 0.21875 Z M 4.125 0.21875 "/></g></g></g><g fill="#189ab4" fill-opacity="1"><g transform="translate(248.048507, 274.603722)"><g><path d="M 2.46875 3.296875 C 2.28125 3.296875 2.132812 3.234375 2.03125 3.109375 C 1.925781 2.984375 1.875 2.847656 1.875 2.703125 C 1.875 2.617188 1.890625 2.53125 1.921875 2.4375 C 1.960938 2.34375 2 2.253906 2.03125 2.171875 L 3.15625 -0.453125 L 0.375 -6.21875 C 0.332031 -6.300781 0.296875 -6.390625 0.265625 -6.484375 C 0.234375 -6.578125 0.21875 -6.664062 0.21875 -6.75 C 0.21875 -6.894531 0.269531 -7.03125 0.375 -7.15625 C 0.488281 -7.28125 0.640625 -7.34375 0.828125 -7.34375 C 0.972656 -7.34375 1.09375 -7.296875 1.1875 -7.203125 C 1.289062 -7.109375 1.367188 -7.007812 1.421875 -6.90625 L 3.796875 -2.03125 L 3.859375 -2.03125 L 6 -6.90625 C 6.050781 -7.007812 6.125 -7.109375 6.21875 -7.203125 C 6.320312 -7.296875 6.445312 -7.34375 6.59375 -7.34375 C 6.789062 -7.34375 6.941406 -7.28125 7.046875 -7.15625 C 7.148438 -7.03125 7.203125 -6.894531 7.203125 -6.75 C 7.203125 -6.664062 7.179688 -6.578125 7.140625 -6.484375 C 7.109375 -6.390625 7.078125 -6.300781 7.046875 -6.21875 L 3.078125 2.84375 C 3.023438 2.957031 2.945312 3.0625 2.84375 3.15625 C 2.75 3.25 2.625 3.296875 2.46875 3.296875 Z M 2.46875 3.296875 "/></g></g></g></svg>