<svg xmlns="http://www.w3.org/2000/svg" xmlns:xlink="http://www.w3.org/1999/xlink" width="500" zoomAndPan="magnify" viewBox="0 0 375 374.999991" height="500" preserveAspectRatio="xMidYMid meet" version="1.0"><defs><g/><clipPath id="8a7cd65bb4"><path d="M 117 245 L 259.449219 245 L 259.449219 314.960938 L 117 314.960938 Z M 117 245 " clip-rule="nonzero"/></clipPath><clipPath id="d7f4c3cc14"><path d="M 151.933594 98.621094 L 230.683594 98.621094 L 230.683594 211.121094 L 151.933594 211.121094 Z M 151.933594 98.621094 " clip-rule="nonzero"/></clipPath><clipPath id="3965f893c5"><path d="M 130.96875 61.089844 L 244.21875 61.089844 L 244.21875 171 L 130.96875 171 Z M 130.96875 61.089844 " clip-rule="nonzero"/></clipPath></defs><rect x="-37.5" width="450" fill="#ffffff" y="-37.499999" height="449.999989" fill-opacity="1"/><rect x="-37.5" width="450" fill="#ffffff" y="-37.499999" height="449.999989" fill-opacity="1"/><g clip-path="url(#8a7cd65bb4)"><path fill="#ffffff" d="M 184.125 280.675781 C 182.59375 278.800781 180.328125 277.714844 177.886719 277.921875 C 175.238281 278.15625 173.03125 279.914062 171.355469 282.144531 C 171.179688 282.261719 171.03125 282.378906 170.882812 282.554688 C 169.355469 284.3125 167.824219 287.128906 165.324219 287.65625 C 163.265625 288.097656 163.058594 284.695312 163 283.347656 C 162.882812 281.320312 160.410156 280.558594 158.996094 282.027344 C 155.523438 285.664062 152.878906 289.914062 150.964844 294.519531 C 150.992188 294.195312 151.054688 293.875 151.082031 293.550781 C 151.964844 287.597656 153.847656 281.46875 157.027344 276.335938 C 158.613281 273.785156 154.582031 271.820312 153.054688 274.253906 C 149.375 279.972656 146.609375 286.015625 145.492188 292.789062 C 144.433594 299.242188 144.136719 306.835938 147.082031 312.878906 C 148.082031 314.960938 151.464844 313.726562 151.40625 311.617188 C 151.40625 311.558594 151.40625 311.5 151.40625 311.441406 C 151.40625 311.410156 151.40625 311.410156 151.40625 311.382812 C 152.4375 303.433594 154.4375 295.488281 159.027344 288.917969 C 159.851562 290.941406 161.441406 292.496094 164.175781 292.582031 C 165.265625 292.613281 166.324219 292.40625 167.324219 291.996094 C 166.675781 295.78125 166.914062 299.828125 168.558594 303.257812 C 170 306.25 173.472656 305.75 175.679688 303.875 C 177.652344 302.203125 179.328125 300.0625 180.742188 297.949219 C 180.800781 297.863281 180.859375 297.773438 180.917969 297.6875 C 180.800781 298.945312 180.710938 300.207031 180.652344 301.5 C 180.566406 303.433594 180.476562 305.457031 181.152344 307.304688 C 181.859375 309.269531 185.007812 308.476562 185.539062 306.6875 C 186.65625 302.847656 186.363281 298.476562 186.742188 294.488281 C 187.15625 290.148438 187.921875 285.898438 188.539062 281.585938 C 188.832031 279.121094 185.683594 279.386719 184.125 280.675781 Z M 178.652344 292.582031 C 177.769531 294.226562 176.738281 295.808594 175.621094 297.277344 C 175.09375 297.980469 174.5625 298.652344 173.945312 299.300781 C 173.769531 299.503906 173.589844 299.679688 173.414062 299.855469 C 173.148438 299.09375 173.03125 298.097656 172.945312 297.6875 C 172.648438 296.308594 172.503906 294.898438 172.5625 293.492188 C 172.648438 290.707031 173.296875 288.007812 174.503906 285.488281 C 175.003906 284.429688 175.710938 283.316406 176.535156 282.4375 C 177.328125 281.585938 178.359375 281.703125 179.386719 282.40625 C 180.742188 283.316406 181.300781 284.722656 181.742188 286.191406 C 180.769531 288.390625 179.742188 290.53125 178.652344 292.582031 Z M 251.449219 277.480469 C 253.683594 273.785156 255.507812 269.828125 256.832031 265.691406 C 258.246094 261.351562 259.332031 256.660156 259.1875 252.085938 C 259.128906 250.121094 259.128906 247.421875 257.539062 245.984375 C 255.859375 244.460938 253.507812 245.015625 251.890625 246.308594 C 248.769531 248.828125 246.855469 253.257812 245.53125 256.953125 C 244.089844 261.027344 243.238281 265.308594 242.445312 269.53125 C 241.945312 272.144531 241.503906 274.78125 241.089844 277.421875 C 240.679688 277.746094 240.355469 278.183594 240.117188 278.742188 C 237.617188 284.429688 236.175781 290.851562 232.320312 295.898438 C 231.644531 296.746094 230.878906 297.628906 229.996094 298.273438 C 229.554688 298.59375 229.027344 298.917969 228.527344 299.152344 C 228.289062 299.269531 227.261719 299.535156 227.613281 299.476562 C 226.4375 299.621094 225.140625 299.359375 224.230469 298.15625 C 223.4375 297.128906 223.171875 295.664062 222.875 294.429688 C 222.554688 293.140625 222.316406 291.820312 222.230469 290.5 C 223.113281 290.910156 224.113281 291.117188 225.289062 291.058594 C 228.347656 290.941406 231.261719 289.121094 232.675781 286.394531 C 234.117188 283.582031 234.292969 279.886719 232.820312 277.039062 C 231.261719 274.019531 227.996094 272.085938 224.613281 273.34375 C 221.140625 274.636719 218.640625 278.007812 217.492188 281.410156 C 216.757812 283.609375 216.34375 285.898438 216.257812 288.183594 C 215.550781 288.769531 214.753906 289.210938 213.871094 289.152344 C 212.519531 289.035156 212.285156 287.773438 212.046875 286.628906 C 211.164062 282.699219 211.046875 278.59375 211.285156 274.605469 C 211.371094 273.050781 209.871094 271.820312 208.398438 271.851562 C 206.753906 271.878906 205.664062 273.199219 205.515625 274.753906 C 205.25 277.480469 205.222656 280.238281 204.722656 282.90625 C 204.191406 285.722656 203.546875 288.507812 202.78125 291.265625 C 201.898438 294.429688 200.925781 297.6875 199.335938 300.617188 C 199.277344 300.382812 199.21875 300.179688 199.191406 299.945312 C 198.632812 297.6875 198.21875 295.371094 197.953125 293.050781 C 197.367188 288.300781 197.21875 283.523438 196.394531 278.800781 C 196.1875 277.6875 194.894531 277.039062 193.863281 277.214844 C 192.6875 277.421875 191.921875 278.332031 191.835938 279.503906 C 191.421875 284.957031 191.746094 290.441406 192.511719 295.839844 C 192.863281 298.390625 193.453125 300.882812 194.011719 303.375 C 194.484375 305.664062 195.101562 307.714844 197.277344 308.949219 C 198.335938 309.5625 199.957031 309.300781 200.777344 308.359375 C 204.605469 304.019531 206.3125 298.417969 207.664062 292.90625 C 207.753906 292.613281 207.8125 292.289062 207.871094 291.996094 C 209.460938 294.078125 211.988281 294.988281 214.609375 294.519531 C 215.34375 294.371094 215.992188 294.136719 216.640625 293.816406 C 216.699219 294.167969 216.757812 294.519531 216.816406 294.871094 C 217.550781 298.59375 218.785156 302.523438 222.523438 304.253906 C 225.613281 305.664062 228.851562 305.222656 231.761719 303.640625 C 235.558594 301.558594 238.117188 297.773438 240 293.992188 C 240.03125 293.960938 240.03125 293.902344 240.058594 293.875 C 240.117188 295.015625 240.207031 296.132812 240.324219 297.277344 C 240.765625 301.117188 241.621094 304.902344 243.5625 308.300781 C 245.445312 311.585938 248.179688 314.605469 252.300781 313.667969 C 253.890625 313.316406 255.097656 310.324219 253.066406 309.679688 C 251.535156 309.210938 249.917969 307.011719 249.003906 305.457031 C 248.503906 304.636719 248.0625 303.785156 247.710938 302.90625 C 247.769531 303.054688 247.417969 301.96875 247.417969 301.96875 C 247.121094 300.941406 246.886719 299.914062 246.679688 298.859375 C 245.710938 293.992188 245.738281 288.976562 246.179688 284.019531 C 248.476562 282.554688 250.125 279.621094 251.449219 277.480469 Z M 251.59375 256.308594 C 252.09375 254.871094 252.710938 253.460938 253.417969 252.144531 C 253.683594 251.671875 253.917969 251.175781 254.183594 250.734375 C 254.214844 250.882812 254.242188 251 254.273438 251.085938 C 254.300781 251.46875 254.332031 251.820312 254.359375 252.203125 C 254.390625 253.140625 254.359375 254.078125 254.300781 254.988281 C 254.15625 257.011719 253.800781 259.003906 253.300781 260.96875 C 252.359375 264.722656 251.066406 268.417969 249.359375 271.878906 C 248.710938 273.199219 248.003906 274.460938 247.238281 275.722656 C 248.238281 269.152344 249.386719 262.523438 251.59375 256.308594 Z M 223.699219 281.203125 C 224.171875 280.355469 224.878906 279.621094 225.640625 278.976562 C 225.90625 278.742188 226.203125 278.449219 226.671875 278.273438 C 226.289062 278.417969 227.054688 278.449219 226.789062 278.332031 C 228.378906 279.152344 228.703125 280.324219 228.671875 282.144531 C 228.644531 283.140625 228.46875 284.167969 227.878906 284.988281 C 227.496094 285.546875 226.964844 285.898438 226.378906 286.074219 C 225.847656 286.25 224.789062 286.425781 224.082031 286.101562 C 223.554688 285.867188 223.023438 285.191406 222.613281 284.519531 C 222.789062 283.316406 223.171875 282.203125 223.699219 281.203125 Z M 200.132812 304.019531 C 200.191406 304.078125 200.160156 304.109375 200.132812 304.019531 Z M 154.613281 250.179688 C 150.730469 251 146.992188 252.40625 143.402344 254.050781 C 142.84375 256.191406 141.960938 258.300781 141.253906 260.382812 C 140.460938 262.699219 139.722656 265.046875 139.078125 267.390625 C 137.753906 272.113281 136.695312 276.953125 135.957031 281.820312 C 135.253906 286.628906 134.871094 291.5 134.8125 296.367188 C 134.78125 298.828125 134.8125 301.292969 134.929688 303.757812 C 135.046875 306.191406 135.515625 308.710938 135.457031 311.148438 C 135.429688 312.085938 134.898438 313.171875 134.015625 313.582031 C 133.28125 313.933594 132.574219 314.136719 131.808594 313.960938 C 131.574219 313.933594 131.339844 313.84375 131.101562 313.726562 C 131.074219 313.726562 131.042969 313.699219 131.015625 313.699219 C 130.28125 313.316406 129.808594 312.523438 129.75 311.703125 C 129.132812 309.621094 129.25 307.070312 129.132812 304.988281 C 128.984375 302.347656 128.957031 299.710938 128.984375 297.070312 C 129.074219 291.878906 129.515625 286.746094 130.28125 281.617188 C 131.015625 276.570312 132.074219 271.585938 133.488281 266.6875 C 134.222656 264.167969 135.046875 261.671875 135.988281 259.210938 C 136.222656 258.566406 136.488281 257.921875 136.722656 257.273438 C 130.957031 260.089844 124.894531 262.613281 118.304688 261.585938 C 115.566406 261.175781 117.863281 257.773438 119.863281 258.039062 C 126.71875 258.976562 133.105469 255.398438 139.105469 252.289062 C 139.195312 252.171875 139.253906 252.054688 139.34375 251.90625 C 139.988281 250.96875 141.046875 250.648438 141.960938 250.851562 C 142.078125 250.792969 142.226562 250.734375 142.34375 250.675781 C 146.960938 248.535156 151.789062 246.746094 156.789062 245.835938 C 161.527344 244.988281 167.53125 244.546875 171.945312 246.835938 C 174.121094 247.976562 171.589844 250.675781 169.855469 250.382812 C 167.207031 249.972656 164.648438 249.386719 161.941406 249.355469 C 159.46875 249.328125 157.027344 249.648438 154.613281 250.179688 Z M 154.613281 250.179688 " fill-opacity="1" fill-rule="nonzero"/></g><g clip-path="url(#d7f4c3cc14)"><path fill="#116f59" d="M 191.308594 98.621094 C 169.570312 98.621094 151.9375 116.253906 151.9375 137.996094 C 151.9375 167.527344 191.308594 211.121094 191.308594 211.121094 C 191.308594 211.121094 230.683594 167.527344 230.683594 137.996094 C 230.683594 116.253906 213.050781 98.621094 191.308594 98.621094 Z M 191.308594 152.058594 C 183.546875 152.058594 177.25 145.757812 177.25 137.996094 C 177.25 130.230469 183.546875 123.933594 191.308594 123.933594 C 199.074219 123.933594 205.371094 130.230469 205.371094 137.996094 C 205.371094 145.757812 199.074219 152.058594 191.308594 152.058594 Z M 191.308594 152.058594 " fill-opacity="1" fill-rule="nonzero"/></g><g clip-path="url(#3965f893c5)"><path fill="#00c5a7" d="M 239.265625 110.058594 C 236.84375 108.25 227.847656 99.378906 215.050781 109.59375 C 212.222656 111.648438 210.789062 112.984375 210.789062 112.984375 C 210.789062 112.984375 190.082031 75.144531 130.953125 61.226562 C 130.953125 61.226562 201.191406 89.367188 205.292969 170.402344 C 225.515625 146.34375 228.492188 116.988281 236.664062 115.679688 C 241.523438 114.902344 244.199219 117.632812 244.199219 117.632812 C 244.199219 117.632812 243.828125 113.460938 239.265625 110.058594 " fill-opacity="1" fill-rule="nonzero"/></g><path fill="#00c5a7" d="M 202.398438 178.648438 L 201.992188 170.566406 C 201.648438 163.824219 200.832031 157.289062 199.558594 150.964844 L 163.292969 170.402344 C 163.292969 170.402344 181.285156 191.40625 202.398438 178.648438 " fill-opacity="1" fill-rule="nonzero"/><path fill="#0a847e" d="M 163.292969 170.402344 L 191.0625 210.984375 L 202.398438 178.648438 C 181.285156 191.40625 163.292969 170.402344 163.292969 170.402344 " fill-opacity="1" fill-rule="nonzero"/><g fill="#00c5a7" fill-opacity="1"><g transform="translate(103.606906, 254.824202)"><g><path d="M 5.765625 -3.203125 L 14.3125 -3.203125 L 14.3125 0 L 1.359375 0 L 1.359375 -2.9375 L 9.84375 -15.78125 L 1.359375 -15.78125 L 1.359375 -18.984375 L 14.3125 -18.984375 L 14.3125 -16.046875 Z M 5.765625 -3.203125 "/></g></g></g><g fill="#00c5a7" fill-opacity="1"><g transform="translate(119.273649, 254.824202)"><g><path d="M 5.6875 -15.90625 L 5.6875 -11.15625 L 12.078125 -11.15625 L 12.078125 -8.140625 L 5.6875 -8.140625 L 5.6875 -3.09375 L 12.890625 -3.09375 L 12.890625 0 L 1.875 0 L 1.875 -19.015625 L 12.890625 -19.015625 L 12.890625 -15.90625 Z M 5.6875 -15.90625 "/></g></g></g><g fill="#00c5a7" fill-opacity="1"><g transform="translate(133.743626, 254.824202)"><g><path d="M 8.4375 0.1875 C 7.113281 0.1875 5.921875 -0.0351562 4.859375 -0.484375 C 3.796875 -0.941406 2.957031 -1.597656 2.34375 -2.453125 C 1.726562 -3.304688 1.410156 -4.3125 1.390625 -5.46875 L 5.46875 -5.46875 C 5.519531 -4.6875 5.796875 -4.066406 6.296875 -3.609375 C 6.796875 -3.160156 7.476562 -2.9375 8.34375 -2.9375 C 9.238281 -2.9375 9.9375 -3.148438 10.4375 -3.578125 C 10.945312 -4.003906 11.203125 -4.5625 11.203125 -5.25 C 11.203125 -5.8125 11.03125 -6.273438 10.6875 -6.640625 C 10.34375 -7.003906 9.910156 -7.289062 9.390625 -7.5 C 8.878906 -7.707031 8.171875 -7.9375 7.265625 -8.1875 C 6.023438 -8.550781 5.019531 -8.910156 4.25 -9.265625 C 3.476562 -9.617188 2.816406 -10.148438 2.265625 -10.859375 C 1.710938 -11.578125 1.4375 -12.535156 1.4375 -13.734375 C 1.4375 -14.859375 1.71875 -15.835938 2.28125 -16.671875 C 2.84375 -17.503906 3.628906 -18.144531 4.640625 -18.59375 C 5.660156 -19.039062 6.828125 -19.265625 8.140625 -19.265625 C 10.097656 -19.265625 11.6875 -18.785156 12.90625 -17.828125 C 14.132812 -16.878906 14.8125 -15.550781 14.9375 -13.84375 L 10.75 -13.84375 C 10.707031 -14.5 10.425781 -15.039062 9.90625 -15.46875 C 9.394531 -15.894531 8.710938 -16.109375 7.859375 -16.109375 C 7.117188 -16.109375 6.523438 -15.914062 6.078125 -15.53125 C 5.628906 -15.15625 5.40625 -14.601562 5.40625 -13.875 C 5.40625 -13.363281 5.570312 -12.941406 5.90625 -12.609375 C 6.25 -12.273438 6.671875 -12.003906 7.171875 -11.796875 C 7.671875 -11.585938 8.375 -11.347656 9.28125 -11.078125 C 10.507812 -10.710938 11.515625 -10.347656 12.296875 -9.984375 C 13.078125 -9.617188 13.75 -9.070312 14.3125 -8.34375 C 14.875 -7.625 15.15625 -6.675781 15.15625 -5.5 C 15.15625 -4.476562 14.890625 -3.53125 14.359375 -2.65625 C 13.835938 -1.789062 13.066406 -1.097656 12.046875 -0.578125 C 11.035156 -0.0664062 9.832031 0.1875 8.4375 0.1875 Z M 8.4375 0.1875 "/></g></g></g><g fill="#00c5a7" fill-opacity="1"><g transform="translate(150.30794, 254.824202)"><g><path d="M 14.796875 -18.984375 L 14.796875 -15.90625 L 9.734375 -15.90625 L 9.734375 0 L 5.9375 0 L 5.9375 -15.90625 L 0.875 -15.90625 L 0.875 -18.984375 Z M 14.796875 -18.984375 "/></g></g></g><g fill="#00c5a7" fill-opacity="1"><g transform="translate(172.475293, 254.824202)"><g><path d="M 14.796875 -18.984375 L 14.796875 -15.90625 L 9.734375 -15.90625 L 9.734375 0 L 5.9375 0 L 5.9375 -15.90625 L 0.875 -15.90625 L 0.875 -18.984375 Z M 14.796875 -18.984375 "/></g></g></g><g fill="#00c5a7" fill-opacity="1"><g transform="translate(188.169238, 254.824202)"><g><path d="M 11.671875 0 L 7.484375 -7.40625 L 5.6875 -7.40625 L 5.6875 0 L 1.875 0 L 1.875 -18.984375 L 9 -18.984375 C 10.46875 -18.984375 11.71875 -18.722656 12.75 -18.203125 C 13.789062 -17.691406 14.566406 -16.992188 15.078125 -16.109375 C 15.597656 -15.234375 15.859375 -14.253906 15.859375 -13.171875 C 15.859375 -11.921875 15.492188 -10.789062 14.765625 -9.78125 C 14.046875 -8.769531 12.96875 -8.078125 11.53125 -7.703125 L 16.078125 0 Z M 5.6875 -10.25 L 8.875 -10.25 C 9.90625 -10.25 10.671875 -10.5 11.171875 -11 C 11.679688 -11.5 11.9375 -12.191406 11.9375 -13.078125 C 11.9375 -13.953125 11.679688 -14.628906 11.171875 -15.109375 C 10.671875 -15.585938 9.90625 -15.828125 8.875 -15.828125 L 5.6875 -15.828125 Z M 5.6875 -10.25 "/></g></g></g><g fill="#00c5a7" fill-opacity="1"><g transform="translate(205.603934, 254.824202)"><g><path d="M 13.515625 -3.625 L 5.953125 -3.625 L 4.703125 0 L 0.703125 0 L 7.53125 -19.015625 L 11.96875 -19.015625 L 18.796875 0 L 14.765625 0 Z M 12.484375 -6.671875 L 9.734375 -14.609375 L 6.984375 -6.671875 Z M 12.484375 -6.671875 "/></g></g></g><g fill="#00c5a7" fill-opacity="1"><g transform="translate(225.078561, 254.824202)"><g><path d="M 18.9375 -18.984375 L 11.96875 0 L 7.34375 0 L 0.375 -18.984375 L 4.46875 -18.984375 L 9.6875 -3.890625 L 14.875 -18.984375 Z M 18.9375 -18.984375 "/></g></g></g><g fill="#00c5a7" fill-opacity="1"><g transform="translate(244.417198, 254.824202)"><g><path d="M 5.6875 -15.90625 L 5.6875 -11.15625 L 12.078125 -11.15625 L 12.078125 -8.140625 L 5.6875 -8.140625 L 5.6875 -3.09375 L 12.890625 -3.09375 L 12.890625 0 L 1.875 0 L 1.875 -19.015625 L 12.890625 -19.015625 L 12.890625 -15.90625 Z M 5.6875 -15.90625 "/></g></g></g><g fill="#00c5a7" fill-opacity="1"><g transform="translate(258.887175, 254.824202)"><g><path d="M 5.6875 -3.015625 L 11.9375 -3.015625 L 11.9375 0 L 1.875 0 L 1.875 -18.984375 L 5.6875 -18.984375 Z M 5.6875 -3.015625 "/></g></g></g><g fill="#00c5a7" fill-opacity="1"><g transform="translate(119.498588, 274.603722)"><g><path d="M 1.953125 0 C 1.765625 0 1.613281 -0.0625 1.5 -0.1875 C 1.394531 -0.3125 1.34375 -0.445312 1.34375 -0.59375 L 1.34375 -9.90625 C 1.34375 -10.050781 1.394531 -10.1875 1.5 -10.3125 C 1.613281 -10.4375 1.765625 -10.5 1.953125 -10.5 L 5.40625 -10.5 C 5.957031 -10.5 6.445312 -10.429688 6.875 -10.296875 C 7.300781 -10.160156 7.65625 -9.972656 7.9375 -9.734375 C 8.21875 -9.492188 8.425781 -9.207031 8.5625 -8.875 C 8.707031 -8.550781 8.78125 -8.191406 8.78125 -7.796875 C 8.78125 -7.359375 8.6875 -6.992188 8.5 -6.703125 C 8.320312 -6.421875 8.125 -6.195312 7.90625 -6.03125 C 7.644531 -5.832031 7.359375 -5.671875 7.046875 -5.546875 L 7.046875 -5.46875 C 7.441406 -5.375 7.789062 -5.222656 8.09375 -5.015625 C 8.351562 -4.828125 8.59375 -4.566406 8.8125 -4.234375 C 9.039062 -3.898438 9.15625 -3.460938 9.15625 -2.921875 C 9.15625 -2.535156 9.070312 -2.164062 8.90625 -1.8125 C 8.738281 -1.457031 8.492188 -1.144531 8.171875 -0.875 C 7.847656 -0.601562 7.453125 -0.390625 6.984375 -0.234375 C 6.523438 -0.078125 6 0 5.40625 0 Z M 5.40625 -1.046875 C 5.8125 -1.046875 6.171875 -1.097656 6.484375 -1.203125 C 6.804688 -1.304688 7.078125 -1.445312 7.296875 -1.625 C 7.515625 -1.8125 7.675781 -2.019531 7.78125 -2.25 C 7.894531 -2.488281 7.953125 -2.738281 7.953125 -3 C 7.953125 -3.257812 7.894531 -3.503906 7.78125 -3.734375 C 7.675781 -3.972656 7.515625 -4.179688 7.296875 -4.359375 C 7.078125 -4.546875 6.804688 -4.691406 6.484375 -4.796875 C 6.171875 -4.898438 5.8125 -4.953125 5.40625 -4.953125 L 2.546875 -4.953125 L 2.546875 -1.046875 Z M 5.40625 -6 C 5.738281 -6 6.035156 -6.046875 6.296875 -6.140625 C 6.566406 -6.234375 6.796875 -6.359375 6.984375 -6.515625 C 7.179688 -6.679688 7.328125 -6.863281 7.421875 -7.0625 C 7.523438 -7.269531 7.578125 -7.488281 7.578125 -7.71875 C 7.578125 -7.945312 7.523438 -8.164062 7.421875 -8.375 C 7.328125 -8.582031 7.179688 -8.765625 6.984375 -8.921875 C 6.796875 -9.085938 6.566406 -9.21875 6.296875 -9.3125 C 6.035156 -9.40625 5.738281 -9.453125 5.40625 -9.453125 L 2.546875 -9.453125 L 2.546875 -6 Z M 5.40625 -6 "/></g></g></g><g fill="#00c5a7" fill-opacity="1"><g transform="translate(129.773581, 274.603722)"><g><path d="M 4.125 0.21875 C 3.65625 0.21875 3.222656 0.144531 2.828125 0 C 2.429688 -0.15625 2.085938 -0.367188 1.796875 -0.640625 C 1.515625 -0.910156 1.296875 -1.222656 1.140625 -1.578125 C 0.984375 -1.929688 0.90625 -2.304688 0.90625 -2.703125 L 0.90625 -4.578125 C 0.90625 -4.960938 0.984375 -5.332031 1.140625 -5.6875 C 1.296875 -6.039062 1.515625 -6.351562 1.796875 -6.625 C 2.085938 -6.894531 2.429688 -7.109375 2.828125 -7.265625 C 3.222656 -7.421875 3.65625 -7.5 4.125 -7.5 C 4.59375 -7.5 5.023438 -7.421875 5.421875 -7.265625 C 5.816406 -7.109375 6.15625 -6.894531 6.4375 -6.625 C 6.726562 -6.351562 6.953125 -6.039062 7.109375 -5.6875 C 7.265625 -5.332031 7.34375 -4.960938 7.34375 -4.578125 L 7.34375 -3.75 C 7.34375 -3.601562 7.289062 -3.46875 7.1875 -3.34375 C 7.082031 -3.21875 6.9375 -3.15625 6.75 -3.15625 L 2.09375 -3.15625 L 2.09375 -2.703125 C 2.09375 -2.441406 2.144531 -2.195312 2.25 -1.96875 C 2.351562 -1.738281 2.488281 -1.535156 2.65625 -1.359375 C 2.832031 -1.191406 3.046875 -1.0625 3.296875 -0.96875 C 3.546875 -0.875 3.820312 -0.828125 4.125 -0.828125 C 4.570312 -0.828125 4.925781 -0.882812 5.1875 -1 C 5.445312 -1.113281 5.660156 -1.242188 5.828125 -1.390625 C 5.992188 -1.535156 6.132812 -1.664062 6.25 -1.78125 C 6.363281 -1.894531 6.503906 -1.953125 6.671875 -1.953125 C 6.828125 -1.953125 6.953125 -1.898438 7.046875 -1.796875 C 7.148438 -1.703125 7.203125 -1.578125 7.203125 -1.421875 C 7.203125 -1.296875 7.128906 -1.132812 6.984375 -0.9375 C 6.847656 -0.75 6.648438 -0.570312 6.390625 -0.40625 C 6.128906 -0.238281 5.804688 -0.09375 5.421875 0.03125 C 5.046875 0.15625 4.613281 0.21875 4.125 0.21875 Z M 6.15625 -4.203125 L 6.15625 -4.578125 C 6.15625 -4.835938 6.101562 -5.082031 6 -5.3125 C 5.894531 -5.539062 5.753906 -5.738281 5.578125 -5.90625 C 5.410156 -6.082031 5.203125 -6.21875 4.953125 -6.3125 C 4.703125 -6.40625 4.425781 -6.453125 4.125 -6.453125 C 3.820312 -6.453125 3.546875 -6.40625 3.296875 -6.3125 C 3.046875 -6.21875 2.832031 -6.082031 2.65625 -5.90625 C 2.488281 -5.738281 2.351562 -5.539062 2.25 -5.3125 C 2.144531 -5.082031 2.09375 -4.835938 2.09375 -4.578125 L 2.09375 -4.203125 Z M 6.15625 -4.203125 "/></g></g></g><g fill="#00c5a7" fill-opacity="1"><g transform="translate(138.323572, 274.603722)"><g><path d="M 3.53125 0.21875 C 3.113281 0.21875 2.738281 0.160156 2.40625 0.046875 C 2.082031 -0.0546875 1.796875 -0.1875 1.546875 -0.34375 C 1.304688 -0.507812 1.101562 -0.6875 0.9375 -0.875 C 0.78125 -1.070312 0.664062 -1.253906 0.59375 -1.421875 C 0.570312 -1.453125 0.5625 -1.488281 0.5625 -1.53125 C 0.539062 -1.613281 0.53125 -1.703125 0.53125 -1.796875 C 0.53125 -1.953125 0.578125 -2.078125 0.671875 -2.171875 C 0.773438 -2.273438 0.898438 -2.328125 1.046875 -2.328125 C 1.203125 -2.328125 1.316406 -2.285156 1.390625 -2.203125 C 1.472656 -2.128906 1.5625 -2.019531 1.65625 -1.875 C 1.738281 -1.726562 1.832031 -1.585938 1.9375 -1.453125 C 2.050781 -1.328125 2.179688 -1.21875 2.328125 -1.125 C 2.472656 -1.03125 2.644531 -0.957031 2.84375 -0.90625 C 3.039062 -0.851562 3.269531 -0.828125 3.53125 -0.828125 C 3.820312 -0.828125 4.082031 -0.859375 4.3125 -0.921875 C 4.539062 -0.992188 4.726562 -1.082031 4.875 -1.1875 C 5.019531 -1.289062 5.128906 -1.410156 5.203125 -1.546875 C 5.285156 -1.679688 5.328125 -1.816406 5.328125 -1.953125 C 5.328125 -2.242188 5.210938 -2.460938 4.984375 -2.609375 C 4.753906 -2.753906 4.460938 -2.878906 4.109375 -2.984375 C 3.765625 -3.085938 3.394531 -3.179688 3 -3.265625 C 2.601562 -3.359375 2.226562 -3.484375 1.875 -3.640625 C 1.53125 -3.796875 1.242188 -4.003906 1.015625 -4.265625 C 0.785156 -4.523438 0.671875 -4.878906 0.671875 -5.328125 C 0.671875 -5.609375 0.734375 -5.878906 0.859375 -6.140625 C 0.984375 -6.398438 1.160156 -6.628906 1.390625 -6.828125 C 1.628906 -7.035156 1.914062 -7.195312 2.25 -7.3125 C 2.59375 -7.4375 2.96875 -7.5 3.375 -7.5 C 3.78125 -7.5 4.148438 -7.445312 4.484375 -7.34375 C 4.816406 -7.25 5.101562 -7.128906 5.34375 -6.984375 C 5.582031 -6.835938 5.773438 -6.679688 5.921875 -6.515625 C 6.066406 -6.347656 6.164062 -6.203125 6.21875 -6.078125 C 6.226562 -6.054688 6.238281 -6.023438 6.25 -5.984375 C 6.257812 -5.953125 6.269531 -5.914062 6.28125 -5.875 C 6.289062 -5.84375 6.296875 -5.8125 6.296875 -5.78125 C 6.296875 -5.625 6.242188 -5.492188 6.140625 -5.390625 C 6.046875 -5.296875 5.925781 -5.25 5.78125 -5.25 C 5.625 -5.25 5.507812 -5.28125 5.4375 -5.34375 C 5.363281 -5.414062 5.273438 -5.507812 5.171875 -5.625 C 4.984375 -5.851562 4.757812 -6.046875 4.5 -6.203125 C 4.238281 -6.367188 3.863281 -6.453125 3.375 -6.453125 C 2.882812 -6.453125 2.507812 -6.335938 2.25 -6.109375 C 2 -5.890625 1.875 -5.628906 1.875 -5.328125 C 1.875 -5.046875 1.988281 -4.832031 2.21875 -4.6875 C 2.445312 -4.539062 2.734375 -4.421875 3.078125 -4.328125 C 3.421875 -4.234375 3.789062 -4.144531 4.1875 -4.0625 C 4.59375 -3.976562 4.96875 -3.851562 5.3125 -3.6875 C 5.65625 -3.53125 5.941406 -3.316406 6.171875 -3.046875 C 6.410156 -2.773438 6.53125 -2.410156 6.53125 -1.953125 C 6.53125 -1.691406 6.460938 -1.429688 6.328125 -1.171875 C 6.191406 -0.910156 5.992188 -0.675781 5.734375 -0.46875 C 5.472656 -0.269531 5.15625 -0.109375 4.78125 0.015625 C 4.414062 0.148438 4 0.21875 3.53125 0.21875 Z M 3.53125 0.21875 "/></g></g></g><g fill="#00c5a7" fill-opacity="1"><g transform="translate(145.898561, 274.603722)"><g><path d="M 3.90625 0 C 3.5625 0 3.242188 -0.0546875 2.953125 -0.171875 C 2.671875 -0.285156 2.425781 -0.441406 2.21875 -0.640625 C 2.019531 -0.847656 1.863281 -1.09375 1.75 -1.375 C 1.632812 -1.664062 1.578125 -1.984375 1.578125 -2.328125 L 1.578125 -6.15625 L 0.828125 -6.15625 C 0.671875 -6.15625 0.539062 -6.203125 0.4375 -6.296875 C 0.34375 -6.398438 0.296875 -6.523438 0.296875 -6.671875 C 0.296875 -6.828125 0.34375 -6.953125 0.4375 -7.046875 C 0.539062 -7.148438 0.671875 -7.203125 0.828125 -7.203125 L 1.578125 -7.203125 L 1.578125 -8.625 C 1.578125 -8.769531 1.628906 -8.90625 1.734375 -9.03125 C 1.835938 -9.15625 1.984375 -9.21875 2.171875 -9.21875 C 2.359375 -9.21875 2.503906 -9.15625 2.609375 -9.03125 C 2.722656 -8.90625 2.78125 -8.769531 2.78125 -8.625 L 2.78125 -7.203125 L 4.875 -7.203125 C 5.019531 -7.203125 5.144531 -7.148438 5.25 -7.046875 C 5.351562 -6.953125 5.40625 -6.828125 5.40625 -6.671875 C 5.40625 -6.523438 5.351562 -6.398438 5.25 -6.296875 C 5.144531 -6.203125 5.019531 -6.15625 4.875 -6.15625 L 2.78125 -6.15625 L 2.78125 -2.328125 C 2.78125 -1.898438 2.878906 -1.578125 3.078125 -1.359375 C 3.285156 -1.148438 3.5625 -1.046875 3.90625 -1.046875 L 5.25 -1.046875 C 5.394531 -1.046875 5.519531 -0.992188 5.625 -0.890625 C 5.726562 -0.796875 5.78125 -0.675781 5.78125 -0.53125 C 5.78125 -0.375 5.726562 -0.242188 5.625 -0.140625 C 5.519531 -0.046875 5.394531 0 5.25 0 Z M 3.90625 0 "/></g></g></g><g fill="#00c5a7" fill-opacity="1"><g transform="translate(152.273555, 274.603722)"><g/></g></g><g fill="#00c5a7" fill-opacity="1"><g transform="translate(156.323556, 274.603722)"><g><path d="M 4.203125 0.15625 C 4.015625 0.15625 3.863281 0.09375 3.75 -0.03125 C 3.644531 -0.15625 3.59375 -0.296875 3.59375 -0.453125 L 3.59375 -9.453125 L 0.75 -9.453125 C 0.5625 -9.453125 0.414062 -9.5 0.3125 -9.59375 C 0.207031 -9.695312 0.15625 -9.820312 0.15625 -9.96875 C 0.15625 -10.125 0.207031 -10.25 0.3125 -10.34375 C 0.414062 -10.445312 0.5625 -10.5 0.75 -10.5 L 7.65625 -10.5 C 7.84375 -10.5 7.988281 -10.445312 8.09375 -10.34375 C 8.195312 -10.25 8.25 -10.125 8.25 -9.96875 C 8.25 -9.820312 8.195312 -9.695312 8.09375 -9.59375 C 7.988281 -9.5 7.84375 -9.453125 7.65625 -9.453125 L 4.796875 -9.453125 L 4.796875 -0.453125 C 4.796875 -0.296875 4.742188 -0.15625 4.640625 -0.03125 C 4.535156 0.09375 4.390625 0.15625 4.203125 0.15625 Z M 4.203125 0.15625 "/></g></g></g><g fill="#00c5a7" fill-opacity="1"><g transform="translate(165.173552, 274.603722)"><g><path d="M 1.796875 0.078125 C 1.609375 0.078125 1.460938 0.015625 1.359375 -0.109375 C 1.253906 -0.234375 1.203125 -0.375 1.203125 -0.53125 L 1.203125 -6.75 C 1.203125 -6.894531 1.253906 -7.03125 1.359375 -7.15625 C 1.460938 -7.28125 1.609375 -7.34375 1.796875 -7.34375 C 1.984375 -7.34375 2.128906 -7.28125 2.234375 -7.15625 C 2.347656 -7.03125 2.40625 -6.894531 2.40625 -6.75 L 2.40625 -6.59375 L 2.46875 -6.59375 C 2.570312 -6.769531 2.707031 -6.921875 2.875 -7.046875 C 3.019531 -7.160156 3.203125 -7.265625 3.421875 -7.359375 C 3.640625 -7.453125 3.898438 -7.5 4.203125 -7.5 L 4.875 -7.5 C 5.019531 -7.5 5.144531 -7.445312 5.25 -7.34375 C 5.351562 -7.25 5.40625 -7.125 5.40625 -6.96875 C 5.40625 -6.820312 5.351562 -6.695312 5.25 -6.59375 C 5.144531 -6.5 5.019531 -6.453125 4.875 -6.453125 L 4.046875 -6.453125 C 3.816406 -6.453125 3.601562 -6.40625 3.40625 -6.3125 C 3.207031 -6.226562 3.03125 -6.101562 2.875 -5.9375 C 2.726562 -5.78125 2.613281 -5.59375 2.53125 -5.375 C 2.445312 -5.15625 2.40625 -4.914062 2.40625 -4.65625 L 2.40625 -0.53125 C 2.40625 -0.375 2.347656 -0.234375 2.234375 -0.109375 C 2.128906 0.015625 1.984375 0.078125 1.796875 0.078125 Z M 1.796875 0.078125 "/></g></g></g><g fill="#00c5a7" fill-opacity="1"><g transform="translate(171.023548, 274.603722)"><g><path d="M 3.15625 0.21875 C 2.769531 0.21875 2.425781 0.160156 2.125 0.046875 C 1.832031 -0.0664062 1.570312 -0.222656 1.34375 -0.421875 C 1.125 -0.617188 0.957031 -0.851562 0.84375 -1.125 C 0.726562 -1.40625 0.671875 -1.707031 0.671875 -2.03125 C 0.671875 -2.320312 0.734375 -2.601562 0.859375 -2.875 C 0.984375 -3.144531 1.164062 -3.382812 1.40625 -3.59375 C 1.644531 -3.8125 1.9375 -3.976562 2.28125 -4.09375 C 2.632812 -4.21875 3.023438 -4.28125 3.453125 -4.28125 L 5.625 -4.28125 L 5.625 -4.71875 C 5.625 -5.207031 5.453125 -5.617188 5.109375 -5.953125 C 4.773438 -6.285156 4.320312 -6.453125 3.75 -6.453125 C 3.300781 -6.453125 2.953125 -6.363281 2.703125 -6.1875 C 2.460938 -6.007812 2.285156 -5.847656 2.171875 -5.703125 C 2.066406 -5.546875 1.960938 -5.429688 1.859375 -5.359375 C 1.765625 -5.285156 1.644531 -5.25 1.5 -5.25 C 1.351562 -5.25 1.226562 -5.296875 1.125 -5.390625 C 1.019531 -5.492188 0.96875 -5.625 0.96875 -5.78125 C 0.96875 -5.882812 0.992188 -5.988281 1.046875 -6.09375 C 1.066406 -6.144531 1.09375 -6.1875 1.125 -6.21875 C 1.1875 -6.3125 1.285156 -6.429688 1.421875 -6.578125 C 1.566406 -6.722656 1.75 -6.863281 1.96875 -7 C 2.1875 -7.132812 2.441406 -7.25 2.734375 -7.34375 C 3.035156 -7.445312 3.375 -7.5 3.75 -7.5 C 4.195312 -7.5 4.609375 -7.421875 4.984375 -7.265625 C 5.359375 -7.117188 5.679688 -6.921875 5.953125 -6.671875 C 6.234375 -6.421875 6.445312 -6.125 6.59375 -5.78125 C 6.75 -5.445312 6.828125 -5.09375 6.828125 -4.71875 L 6.828125 -0.53125 C 6.828125 -0.375 6.773438 -0.234375 6.671875 -0.109375 C 6.566406 0.015625 6.414062 0.078125 6.21875 0.078125 C 6.03125 0.078125 5.882812 0.015625 5.78125 -0.109375 C 5.675781 -0.234375 5.625 -0.375 5.625 -0.53125 L 5.625 -0.59375 L 5.546875 -0.59375 C 5.359375 -0.4375 5.144531 -0.300781 4.90625 -0.1875 C 4.695312 -0.0703125 4.445312 0.0195312 4.15625 0.09375 C 3.863281 0.175781 3.53125 0.21875 3.15625 0.21875 Z M 3.296875 -0.828125 C 3.722656 -0.828125 4.078125 -0.875 4.359375 -0.96875 C 4.648438 -1.070312 4.890625 -1.1875 5.078125 -1.3125 C 5.304688 -1.445312 5.488281 -1.609375 5.625 -1.796875 L 5.625 -3.21875 L 3.453125 -3.21875 C 2.921875 -3.21875 2.523438 -3.101562 2.265625 -2.875 C 2.003906 -2.644531 1.875 -2.363281 1.875 -2.03125 C 1.875 -1.6875 2 -1.398438 2.25 -1.171875 C 2.5 -0.941406 2.847656 -0.828125 3.296875 -0.828125 Z M 3.296875 -0.828125 "/></g></g></g><g fill="#00c5a7" fill-opacity="1"><g transform="translate(179.348535, 274.603722)"><g><path d="M 3.59375 0.21875 C 3.363281 0.21875 3.175781 0.148438 3.03125 0.015625 C 2.882812 -0.109375 2.773438 -0.265625 2.703125 -0.453125 L 0.375 -6.21875 C 0.34375 -6.300781 0.304688 -6.390625 0.265625 -6.484375 C 0.234375 -6.578125 0.21875 -6.664062 0.21875 -6.75 C 0.21875 -6.894531 0.269531 -7.03125 0.375 -7.15625 C 0.488281 -7.28125 0.640625 -7.34375 0.828125 -7.34375 C 0.972656 -7.34375 1.09375 -7.296875 1.1875 -7.203125 C 1.289062 -7.109375 1.367188 -7.007812 1.421875 -6.90625 L 3.5625 -1.5 L 3.625 -1.5 L 5.78125 -6.90625 C 5.820312 -7.007812 5.894531 -7.109375 6 -7.203125 C 6.101562 -7.296875 6.226562 -7.34375 6.375 -7.34375 C 6.5625 -7.34375 6.707031 -7.28125 6.8125 -7.15625 C 6.914062 -7.03125 6.96875 -6.894531 6.96875 -6.75 C 6.96875 -6.664062 6.953125 -6.578125 6.921875 -6.484375 C 6.890625 -6.390625 6.859375 -6.300781 6.828125 -6.21875 L 4.5 -0.453125 C 4.414062 -0.265625 4.300781 -0.109375 4.15625 0.015625 C 4.007812 0.148438 3.820312 0.21875 3.59375 0.21875 Z M 3.59375 0.21875 "/></g></g></g><g fill="#00c5a7" fill-opacity="1"><g transform="translate(186.998527, 274.603722)"><g><path d="M 4.125 0.21875 C 3.65625 0.21875 3.222656 0.144531 2.828125 0 C 2.429688 -0.15625 2.085938 -0.367188 1.796875 -0.640625 C 1.515625 -0.910156 1.296875 -1.222656 1.140625 -1.578125 C 0.984375 -1.929688 0.90625 -2.304688 0.90625 -2.703125 L 0.90625 -4.578125 C 0.90625 -4.960938 0.984375 -5.332031 1.140625 -5.6875 C 1.296875 -6.039062 1.515625 -6.351562 1.796875 -6.625 C 2.085938 -6.894531 2.429688 -7.109375 2.828125 -7.265625 C 3.222656 -7.421875 3.65625 -7.5 4.125 -7.5 C 4.59375 -7.5 5.023438 -7.421875 5.421875 -7.265625 C 5.816406 -7.109375 6.15625 -6.894531 6.4375 -6.625 C 6.726562 -6.351562 6.953125 -6.039062 7.109375 -5.6875 C 7.265625 -5.332031 7.34375 -4.960938 7.34375 -4.578125 L 7.34375 -3.75 C 7.34375 -3.601562 7.289062 -3.46875 7.1875 -3.34375 C 7.082031 -3.21875 6.9375 -3.15625 6.75 -3.15625 L 2.09375 -3.15625 L 2.09375 -2.703125 C 2.09375 -2.441406 2.144531 -2.195312 2.25 -1.96875 C 2.351562 -1.738281 2.488281 -1.535156 2.65625 -1.359375 C 2.832031 -1.191406 3.046875 -1.0625 3.296875 -0.96875 C 3.546875 -0.875 3.820312 -0.828125 4.125 -0.828125 C 4.570312 -0.828125 4.925781 -0.882812 5.1875 -1 C 5.445312 -1.113281 5.660156 -1.242188 5.828125 -1.390625 C 5.992188 -1.535156 6.132812 -1.664062 6.25 -1.78125 C 6.363281 -1.894531 6.503906 -1.953125 6.671875 -1.953125 C 6.828125 -1.953125 6.953125 -1.898438 7.046875 -1.796875 C 7.148438 -1.703125 7.203125 -1.578125 7.203125 -1.421875 C 7.203125 -1.296875 7.128906 -1.132812 6.984375 -0.9375 C 6.847656 -0.75 6.648438 -0.570312 6.390625 -0.40625 C 6.128906 -0.238281 5.804688 -0.09375 5.421875 0.03125 C 5.046875 0.15625 4.613281 0.21875 4.125 0.21875 Z M 6.15625 -4.203125 L 6.15625 -4.578125 C 6.15625 -4.835938 6.101562 -5.082031 6 -5.3125 C 5.894531 -5.539062 5.753906 -5.738281 5.578125 -5.90625 C 5.410156 -6.082031 5.203125 -6.21875 4.953125 -6.3125 C 4.703125 -6.40625 4.425781 -6.453125 4.125 -6.453125 C 3.820312 -6.453125 3.546875 -6.40625 3.296875 -6.3125 C 3.046875 -6.21875 2.832031 -6.082031 2.65625 -5.90625 C 2.488281 -5.738281 2.351562 -5.539062 2.25 -5.3125 C 2.144531 -5.082031 2.09375 -4.835938 2.09375 -4.578125 L 2.09375 -4.203125 Z M 6.15625 -4.203125 "/></g></g></g><g fill="#00c5a7" fill-opacity="1"><g transform="translate(195.548516, 274.603722)"><g><path d="M 1.796875 0.078125 C 1.609375 0.078125 1.460938 0.015625 1.359375 -0.109375 C 1.253906 -0.234375 1.203125 -0.375 1.203125 -0.53125 L 1.203125 -9.828125 C 1.203125 -9.972656 1.253906 -10.109375 1.359375 -10.234375 C 1.460938 -10.359375 1.609375 -10.421875 1.796875 -10.421875 C 1.984375 -10.421875 2.128906 -10.359375 2.234375 -10.234375 C 2.347656 -10.109375 2.40625 -9.972656 2.40625 -9.828125 L 2.40625 -0.53125 C 2.40625 -0.375 2.347656 -0.234375 2.234375 -0.109375 C 2.128906 0.015625 1.984375 0.078125 1.796875 0.078125 Z M 1.796875 0.078125 "/></g></g></g><g fill="#00c5a7" fill-opacity="1"><g transform="translate(199.598517, 274.603722)"><g/></g></g><g fill="#00c5a7" fill-opacity="1"><g transform="translate(203.648518, 274.603722)"><g><path d="M 0.828125 0.15625 C 0.640625 0.15625 0.488281 0.09375 0.375 -0.03125 C 0.269531 -0.15625 0.21875 -0.296875 0.21875 -0.453125 C 0.21875 -0.515625 0.226562 -0.582031 0.25 -0.65625 C 0.257812 -0.695312 0.273438 -0.726562 0.296875 -0.75 L 3.90625 -9.96875 C 4.019531 -10.269531 4.140625 -10.484375 4.265625 -10.609375 C 4.390625 -10.734375 4.566406 -10.796875 4.796875 -10.796875 C 5.023438 -10.796875 5.203125 -10.734375 5.328125 -10.609375 C 5.453125 -10.484375 5.578125 -10.269531 5.703125 -9.96875 L 9.296875 -0.75 C 9.304688 -0.726562 9.316406 -0.695312 9.328125 -0.65625 C 9.335938 -0.625 9.347656 -0.59375 9.359375 -0.5625 C 9.367188 -0.53125 9.375 -0.492188 9.375 -0.453125 C 9.375 -0.296875 9.320312 -0.15625 9.21875 -0.03125 C 9.113281 0.09375 8.96875 0.15625 8.78125 0.15625 C 8.625 0.15625 8.5 0.113281 8.40625 0.03125 C 8.320312 -0.0507812 8.242188 -0.1875 8.171875 -0.375 L 7.28125 -2.78125 L 2.328125 -2.78125 L 1.421875 -0.375 C 1.347656 -0.1875 1.265625 -0.0507812 1.171875 0.03125 C 1.085938 0.113281 0.972656 0.15625 0.828125 0.15625 Z M 6.828125 -3.828125 L 4.828125 -9.15625 L 4.765625 -9.15625 L 2.78125 -3.828125 Z M 6.828125 -3.828125 "/></g></g></g><g fill="#00c5a7" fill-opacity="1"><g transform="translate(213.698507, 274.603722)"><g><path d="M 4.125 3.296875 C 3.675781 3.296875 3.269531 3.234375 2.90625 3.109375 C 2.550781 2.984375 2.242188 2.835938 1.984375 2.671875 C 1.734375 2.503906 1.539062 2.320312 1.40625 2.125 C 1.269531 1.9375 1.203125 1.78125 1.203125 1.65625 C 1.203125 1.5 1.25 1.367188 1.34375 1.265625 C 1.445312 1.171875 1.570312 1.125 1.71875 1.125 C 1.875 1.125 2.007812 1.179688 2.125 1.296875 C 2.25 1.410156 2.394531 1.539062 2.5625 1.6875 C 2.726562 1.832031 2.929688 1.960938 3.171875 2.078125 C 3.421875 2.191406 3.738281 2.25 4.125 2.25 C 4.695312 2.25 5.148438 2.082031 5.484375 1.75 C 5.828125 1.425781 6 1.019531 6 0.53125 L 6 -0.96875 L 5.921875 -0.96875 C 5.773438 -0.800781 5.609375 -0.65625 5.421875 -0.53125 C 5.242188 -0.414062 5.03125 -0.3125 4.78125 -0.21875 C 4.53125 -0.125 4.238281 -0.078125 3.90625 -0.078125 C 3.488281 -0.078125 3.097656 -0.15625 2.734375 -0.3125 C 2.367188 -0.46875 2.050781 -0.675781 1.78125 -0.9375 C 1.507812 -1.207031 1.296875 -1.519531 1.140625 -1.875 C 0.984375 -2.238281 0.90625 -2.613281 0.90625 -3 L 0.90625 -4.578125 C 0.90625 -4.960938 0.984375 -5.332031 1.140625 -5.6875 C 1.296875 -6.039062 1.507812 -6.351562 1.78125 -6.625 C 2.050781 -6.894531 2.367188 -7.109375 2.734375 -7.265625 C 3.097656 -7.421875 3.488281 -7.5 3.90625 -7.5 C 4.238281 -7.5 4.53125 -7.453125 4.78125 -7.359375 C 5.03125 -7.265625 5.242188 -7.160156 5.421875 -7.046875 C 5.609375 -6.921875 5.773438 -6.769531 5.921875 -6.59375 L 6 -6.59375 L 6 -6.75 C 6 -6.894531 6.050781 -7.03125 6.15625 -7.15625 C 6.257812 -7.28125 6.40625 -7.34375 6.59375 -7.34375 C 6.789062 -7.34375 6.941406 -7.28125 7.046875 -7.15625 C 7.148438 -7.03125 7.203125 -6.894531 7.203125 -6.75 L 7.203125 0.53125 C 7.203125 0.90625 7.125 1.257812 6.96875 1.59375 C 6.820312 1.925781 6.609375 2.21875 6.328125 2.46875 C 6.054688 2.71875 5.734375 2.914062 5.359375 3.0625 C 4.984375 3.21875 4.570312 3.296875 4.125 3.296875 Z M 4.046875 -1.125 C 4.328125 -1.125 4.585938 -1.171875 4.828125 -1.265625 C 5.066406 -1.359375 5.269531 -1.488281 5.4375 -1.65625 C 5.613281 -1.832031 5.75 -2.035156 5.84375 -2.265625 C 5.945312 -2.492188 6 -2.738281 6 -3 L 6 -4.578125 C 6 -4.835938 5.945312 -5.082031 5.84375 -5.3125 C 5.75 -5.539062 5.613281 -5.738281 5.4375 -5.90625 C 5.269531 -6.082031 5.066406 -6.21875 4.828125 -6.3125 C 4.585938 -6.40625 4.328125 -6.453125 4.046875 -6.453125 C 3.765625 -6.453125 3.503906 -6.40625 3.265625 -6.3125 C 3.023438 -6.21875 2.820312 -6.082031 2.65625 -5.90625 C 2.488281 -5.738281 2.351562 -5.539062 2.25 -5.3125 C 2.144531 -5.082031 2.09375 -4.835938 2.09375 -4.578125 L 2.09375 -3 C 2.09375 -2.738281 2.144531 -2.492188 2.25 -2.265625 C 2.351562 -2.035156 2.488281 -1.832031 2.65625 -1.65625 C 2.820312 -1.488281 3.023438 -1.359375 3.265625 -1.265625 C 3.503906 -1.171875 3.765625 -1.125 4.046875 -1.125 Z M 4.046875 -1.125 "/></g></g></g><g fill="#00c5a7" fill-opacity="1"><g transform="translate(222.548508, 274.603722)"><g><path d="M 4.125 0.21875 C 3.65625 0.21875 3.222656 0.144531 2.828125 0 C 2.429688 -0.15625 2.085938 -0.367188 1.796875 -0.640625 C 1.515625 -0.910156 1.296875 -1.222656 1.140625 -1.578125 C 0.984375 -1.929688 0.90625 -2.304688 0.90625 -2.703125 L 0.90625 -4.578125 C 0.90625 -4.960938 0.984375 -5.332031 1.140625 -5.6875 C 1.296875 -6.039062 1.515625 -6.351562 1.796875 -6.625 C 2.085938 -6.894531 2.429688 -7.109375 2.828125 -7.265625 C 3.222656 -7.421875 3.65625 -7.5 4.125 -7.5 C 4.59375 -7.5 5.023438 -7.421875 5.421875 -7.265625 C 5.816406 -7.109375 6.15625 -6.894531 6.4375 -6.625 C 6.726562 -6.351562 6.953125 -6.039062 7.109375 -5.6875 C 7.265625 -5.332031 7.34375 -4.960938 7.34375 -4.578125 L 7.34375 -3.75 C 7.34375 -3.601562 7.289062 -3.46875 7.1875 -3.34375 C 7.082031 -3.21875 6.9375 -3.15625 6.75 -3.15625 L 2.09375 -3.15625 L 2.09375 -2.703125 C 2.09375 -2.441406 2.144531 -2.195312 2.25 -1.96875 C 2.351562 -1.738281 2.488281 -1.535156 2.65625 -1.359375 C 2.832031 -1.191406 3.046875 -1.0625 3.296875 -0.96875 C 3.546875 -0.875 3.820312 -0.828125 4.125 -0.828125 C 4.570312 -0.828125 4.925781 -0.882812 5.1875 -1 C 5.445312 -1.113281 5.660156 -1.242188 5.828125 -1.390625 C 5.992188 -1.535156 6.132812 -1.664062 6.25 -1.78125 C 6.363281 -1.894531 6.503906 -1.953125 6.671875 -1.953125 C 6.828125 -1.953125 6.953125 -1.898438 7.046875 -1.796875 C 7.148438 -1.703125 7.203125 -1.578125 7.203125 -1.421875 C 7.203125 -1.296875 7.128906 -1.132812 6.984375 -0.9375 C 6.847656 -0.75 6.648438 -0.570312 6.390625 -0.40625 C 6.128906 -0.238281 5.804688 -0.09375 5.421875 0.03125 C 5.046875 0.15625 4.613281 0.21875 4.125 0.21875 Z M 6.15625 -4.203125 L 6.15625 -4.578125 C 6.15625 -4.835938 6.101562 -5.082031 6 -5.3125 C 5.894531 -5.539062 5.753906 -5.738281 5.578125 -5.90625 C 5.410156 -6.082031 5.203125 -6.21875 4.953125 -6.3125 C 4.703125 -6.40625 4.425781 -6.453125 4.125 -6.453125 C 3.820312 -6.453125 3.546875 -6.40625 3.296875 -6.3125 C 3.046875 -6.21875 2.832031 -6.082031 2.65625 -5.90625 C 2.488281 -5.738281 2.351562 -5.539062 2.25 -5.3125 C 2.144531 -5.082031 2.09375 -4.835938 2.09375 -4.578125 L 2.09375 -4.203125 Z M 6.15625 -4.203125 "/></g></g></g><g fill="#00c5a7" fill-opacity="1"><g transform="translate(231.098503, 274.603722)"><g><path d="M 1.796875 0.078125 C 1.609375 0.078125 1.460938 0.015625 1.359375 -0.109375 C 1.253906 -0.234375 1.203125 -0.375 1.203125 -0.53125 L 1.203125 -6.75 C 1.203125 -6.894531 1.253906 -7.03125 1.359375 -7.15625 C 1.460938 -7.28125 1.609375 -7.34375 1.796875 -7.34375 C 1.984375 -7.34375 2.128906 -7.28125 2.234375 -7.15625 C 2.347656 -7.03125 2.40625 -6.894531 2.40625 -6.75 L 2.40625 -6.59375 L 2.46875 -6.59375 C 2.613281 -6.769531 2.785156 -6.921875 2.984375 -7.046875 C 3.148438 -7.160156 3.363281 -7.265625 3.625 -7.359375 C 3.894531 -7.453125 4.210938 -7.5 4.578125 -7.5 C 4.941406 -7.5 5.296875 -7.421875 5.640625 -7.265625 C 5.984375 -7.117188 6.28125 -6.921875 6.53125 -6.671875 C 6.78125 -6.421875 6.976562 -6.125 7.125 -5.78125 C 7.269531 -5.445312 7.34375 -5.09375 7.34375 -4.71875 L 7.34375 -0.53125 C 7.34375 -0.375 7.289062 -0.234375 7.1875 -0.109375 C 7.082031 0.015625 6.9375 0.078125 6.75 0.078125 C 6.5625 0.078125 6.414062 0.015625 6.3125 -0.109375 C 6.207031 -0.234375 6.15625 -0.375 6.15625 -0.53125 L 6.15625 -4.71875 C 6.15625 -5.207031 5.984375 -5.617188 5.640625 -5.953125 C 5.296875 -6.285156 4.84375 -6.453125 4.28125 -6.453125 C 3.707031 -6.453125 3.25 -6.285156 2.90625 -5.953125 C 2.570312 -5.617188 2.40625 -5.207031 2.40625 -4.71875 L 2.40625 -0.53125 C 2.40625 -0.375 2.347656 -0.234375 2.234375 -0.109375 C 2.128906 0.015625 1.984375 0.078125 1.796875 0.078125 Z M 1.796875 0.078125 "/></g></g></g><g fill="#00c5a7" fill-opacity="1"><g transform="translate(239.948505, 274.603722)"><g><path d="M 4.125 0.21875 C 3.65625 0.21875 3.222656 0.144531 2.828125 0 C 2.429688 -0.15625 2.085938 -0.367188 1.796875 -0.640625 C 1.515625 -0.910156 1.296875 -1.222656 1.140625 -1.578125 C 0.984375 -1.929688 0.90625 -2.304688 0.90625 -2.703125 L 0.90625 -4.578125 C 0.90625 -4.960938 0.984375 -5.332031 1.140625 -5.6875 C 1.296875 -6.039062 1.515625 -6.351562 1.796875 -6.625 C 2.085938 -6.894531 2.429688 -7.109375 2.828125 -7.265625 C 3.222656 -7.421875 3.65625 -7.5 4.125 -7.5 C 4.507812 -7.5 4.863281 -7.441406 5.1875 -7.328125 C 5.507812 -7.222656 5.789062 -7.085938 6.03125 -6.921875 C 6.269531 -6.753906 6.46875 -6.578125 6.625 -6.390625 C 6.78125 -6.203125 6.894531 -6.019531 6.96875 -5.84375 C 6.976562 -5.820312 6.988281 -5.789062 7 -5.75 C 7.007812 -5.71875 7.019531 -5.675781 7.03125 -5.625 C 7.039062 -5.570312 7.046875 -5.519531 7.046875 -5.46875 C 7.046875 -5.320312 6.992188 -5.195312 6.890625 -5.09375 C 6.796875 -5 6.675781 -4.953125 6.53125 -4.953125 C 6.375 -4.953125 6.253906 -4.988281 6.171875 -5.0625 C 6.097656 -5.132812 6.015625 -5.25 5.921875 -5.40625 C 5.734375 -5.695312 5.507812 -5.941406 5.25 -6.140625 C 4.988281 -6.347656 4.613281 -6.453125 4.125 -6.453125 C 3.820312 -6.453125 3.546875 -6.40625 3.296875 -6.3125 C 3.046875 -6.21875 2.832031 -6.082031 2.65625 -5.90625 C 2.488281 -5.738281 2.351562 -5.539062 2.25 -5.3125 C 2.144531 -5.082031 2.09375 -4.835938 2.09375 -4.578125 L 2.09375 -2.703125 C 2.09375 -2.441406 2.144531 -2.195312 2.25 -1.96875 C 2.351562 -1.738281 2.488281 -1.535156 2.65625 -1.359375 C 2.832031 -1.191406 3.046875 -1.0625 3.296875 -0.96875 C 3.546875 -0.875 3.820312 -0.828125 4.125 -0.828125 C 4.644531 -0.828125 5.0625 -0.953125 5.375 -1.203125 C 5.6875 -1.453125 5.921875 -1.726562 6.078125 -2.03125 C 6.148438 -2.175781 6.226562 -2.285156 6.3125 -2.359375 C 6.40625 -2.429688 6.523438 -2.46875 6.671875 -2.46875 C 6.828125 -2.46875 6.953125 -2.414062 7.046875 -2.3125 C 7.148438 -2.21875 7.203125 -2.097656 7.203125 -1.953125 C 7.203125 -1.890625 7.195312 -1.832031 7.1875 -1.78125 C 7.175781 -1.738281 7.164062 -1.707031 7.15625 -1.6875 C 7.144531 -1.644531 7.132812 -1.609375 7.125 -1.578125 C 7.039062 -1.390625 6.914062 -1.1875 6.75 -0.96875 C 6.59375 -0.757812 6.382812 -0.566406 6.125 -0.390625 C 5.875 -0.210938 5.578125 -0.0664062 5.234375 0.046875 C 4.898438 0.160156 4.53125 0.21875 4.125 0.21875 Z M 4.125 0.21875 "/></g></g></g><g fill="#00c5a7" fill-opacity="1"><g transform="translate(248.048507, 274.603722)"><g><path d="M 2.46875 3.296875 C 2.28125 3.296875 2.132812 3.234375 2.03125 3.109375 C 1.925781 2.984375 1.875 2.847656 1.875 2.703125 C 1.875 2.617188 1.890625 2.53125 1.921875 2.4375 C 1.960938 2.34375 2 2.253906 2.03125 2.171875 L 3.15625 -0.453125 L 0.375 -6.21875 C 0.332031 -6.300781 0.296875 -6.390625 0.265625 -6.484375 C 0.234375 -6.578125 0.21875 -6.664062 0.21875 -6.75 C 0.21875 -6.894531 0.269531 -7.03125 0.375 -7.15625 C 0.488281 -7.28125 0.640625 -7.34375 0.828125 -7.34375 C 0.972656 -7.34375 1.09375 -7.296875 1.1875 -7.203125 C 1.289062 -7.109375 1.367188 -7.007812 1.421875 -6.90625 L 3.796875 -2.03125 L 3.859375 -2.03125 L 6 -6.90625 C 6.050781 -7.007812 6.125 -7.109375 6.21875 -7.203125 C 6.320312 -7.296875 6.445312 -7.34375 6.59375 -7.34375 C 6.789062 -7.34375 6.941406 -7.28125 7.046875 -7.15625 C 7.148438 -7.03125 7.203125 -6.894531 7.203125 -6.75 C 7.203125 -6.664062 7.179688 -6.578125 7.140625 -6.484375 C 7.109375 -6.390625 7.078125 -6.300781 7.046875 -6.21875 L 3.078125 2.84375 C 3.023438 2.957031 2.945312 3.0625 2.84375 3.15625 C 2.75 3.25 2.625 3.296875 2.46875 3.296875 Z M 2.46875 3.296875 "/></g></g></g></svg>