<svg xmlns="http://www.w3.org/2000/svg" xmlns:xlink="http://www.w3.org/1999/xlink" width="500" zoomAndPan="magnify" viewBox="0 0 375 374.999991" height="500" preserveAspectRatio="xMidYMid meet" version="1.0"><defs><clipPath id="601efec4e2"><path d="M 148.136719 131.265625 L 226.886719 131.265625 L 226.886719 243.765625 L 148.136719 243.765625 Z M 148.136719 131.265625 " clip-rule="nonzero"/></clipPath><clipPath id="6f4c281937"><path d="M 127.449219 93.734375 L 240.699219 93.734375 L 240.699219 204 L 127.449219 204 Z M 127.449219 93.734375 " clip-rule="nonzero"/></clipPath><clipPath id="3a36ad30dd"><path d="M 159 203 L 199 203 L 199 243.734375 L 159 243.734375 Z M 159 203 " clip-rule="nonzero"/></clipPath></defs><rect x="-37.5" width="450" fill="#ffffff" y="-37.499999" height="449.999989" fill-opacity="1"/><rect x="-37.5" width="450" fill="#ffffff" y="-37.499999" height="449.999989" fill-opacity="1"/><g clip-path="url(#601efec4e2)"><path fill="#116f59" d="M 187.511719 131.265625 C 165.769531 131.265625 148.136719 148.898438 148.136719 170.640625 C 148.136719 200.171875 187.511719 243.765625 187.511719 243.765625 C 187.511719 243.765625 226.886719 200.171875 226.886719 170.640625 C 226.886719 148.898438 209.25 131.265625 187.511719 131.265625 Z M 187.511719 184.703125 C 179.75 184.703125 173.449219 178.402344 173.449219 170.640625 C 173.449219 162.878906 179.75 156.578125 187.511719 156.578125 C 195.273438 156.578125 201.574219 162.878906 201.574219 170.640625 C 201.574219 178.402344 195.273438 184.703125 187.511719 184.703125 Z M 187.511719 184.703125 " fill-opacity="1" fill-rule="nonzero"/></g><g clip-path="url(#6f4c281937)"><path fill="#00c5a7" d="M 235.746094 142.703125 C 233.324219 140.898438 224.328125 132.023438 211.53125 142.242188 C 208.699219 144.292969 207.265625 145.632812 207.265625 145.632812 C 207.265625 145.632812 186.5625 107.789062 127.429688 93.875 C 127.429688 93.875 197.667969 122.011719 201.769531 203.046875 C 221.996094 178.992188 224.96875 149.636719 233.144531 148.324219 C 238 147.546875 240.675781 150.277344 240.675781 150.277344 C 240.675781 150.277344 240.308594 146.105469 235.746094 142.703125 " fill-opacity="1" fill-rule="nonzero"/></g><path fill="#00c5a7" d="M 198.878906 211.292969 L 198.46875 203.210938 C 198.128906 196.46875 197.3125 189.9375 196.039062 183.613281 L 159.769531 203.046875 C 159.769531 203.046875 177.761719 224.050781 198.878906 211.292969 " fill-opacity="1" fill-rule="nonzero"/><g clip-path="url(#3a36ad30dd)"><path fill="#0a847e" d="M 159.769531 203.046875 L 187.542969 243.632812 L 198.878906 211.292969 C 177.761719 224.050781 159.769531 203.046875 159.769531 203.046875 " fill-opacity="1" fill-rule="nonzero"/></g></svg>